<?xml version="1.0" encoding="utf-8"?>
<!-- Generator: Adobe Illustrator 25.2.1, SVG Export Plug-In . SVG Version: 6.00 Build 0)  -->
<svg version="1.1" id="Layer_1" xmlns="http://www.w3.org/2000/svg" xmlns:xlink="http://www.w3.org/1999/xlink" x="0px" y="0px"
	 viewBox="0 0 80 80" style="enable-background:new 0 0 80 80;" xml:space="preserve">
<style type="text/css">
	.st0{fill:#262626;}
	.st1{fill:#FFFFFF;}
	.st2{fill:#302E2E;}
	.st3{fill-rule:evenodd;clip-rule:evenodd;fill:#FFFFFF;}
	.st4{fill-rule:evenodd;clip-rule:evenodd;fill:#C4C4C4;}
	.st5{fill:#C4C4C4;}
	.st6{fill:#E2E2E2;}
	.st7{fill:#A3A3A3;}
	.st8{clip-path:url(#SVGID_2_);}
	.st9{fill:#F6C434;}
	.st10{fill-rule:evenodd;clip-rule:evenodd;fill:#F6C434;}
	.st11{fill:#242729;}
	.st12{fill:#A5A5A5;}
	.st13{fill:#F6C358;}
	.st14{fill:#EBF0F3;}
	.st15{fill:#FCD462;}
	.st16{fill:#E2E5E7;}
	.st17{fill:#B0B7BD;}
	.st18{fill:#CAD1D8;}
	.st19{fill:#F15642;}
	.st20{fill:#6344FF;}
	.st21{fill:#30C668;}
	.st22{fill:#F02F60;}
	.st23{fill-rule:evenodd;clip-rule:evenodd;fill:#F02F60;}
	.st24{fill:#0B6AF6;}
	.st25{fill:#888888;}
</style>
<path class="st21" d="M75.7,13.54H57.37V9.38c0-1.78-1.17-3.65-2.77-4.43L50.7,3.04c-1.14-0.56-2.87-0.96-4.14-0.96H33.42
	c-1.26,0-3,0.4-4.13,0.96l-3.9,1.91c-1.61,0.79-2.77,2.65-2.77,4.43v4.16H4.3c-2.37,0-4.3,1.93-4.3,4.3v27.05
	c0,1.5,0.76,2.83,1.92,3.63v23.65c0,2.47,1.94,4.56,4.4,4.75C6.45,76.92,19.9,77.92,40,77.92c20.09,0,33.55-1,33.68-1.01
	c2.46-0.19,4.4-2.27,4.4-4.75V48.51c1.16-0.8,1.92-2.14,1.92-3.63V17.83C79.99,15.46,78.06,13.54,75.7,13.54z M27.25,9.41
	c0.02-0.09,0.13-0.26,0.21-0.32l3.87-1.9c0.49-0.24,1.55-0.48,2.1-0.48h13.14c0.55,0,1.61,0.24,2.1,0.48l3.89,1.9
	c0.07,0.06,0.18,0.23,0.2,0.33v4.13h-25.5V9.41z M19.66,18.56h40.68v26.43c-4,0.14-8.59,0.24-13.61,0.31
	c-0.19-2.12-1.97-3.79-4.14-3.79h-5.17c-2.17,0-3.95,1.66-4.14,3.79c-5.02-0.06-9.62-0.17-13.61-0.31
	C19.66,44.99,19.66,18.56,19.66,18.56z M42.84,45.66v4.37c0,0.14-0.13,0.26-0.26,0.26h-5.17c-0.14,0-0.26-0.13-0.26-0.26v-4.37
	c0-0.14,0.13-0.26,0.26-0.26h5.17C42.72,45.4,42.84,45.52,42.84,45.66z M5.02,44.31V18.56h9.76v26.25
	C9.79,44.6,6.32,44.4,5.02,44.31z M73.06,71.92C71.18,72.04,58.45,72.9,40,72.9c-18.43,0-31.18-0.84-33.06-0.98V49.45
	c1.83,0.11,4.52,0.24,7.83,0.37v4.52c0,1.35,1.1,2.44,2.44,2.44c1.35,0,2.44-1.1,2.44-2.44V50c4,0.13,8.6,0.24,13.61,0.31
	c0.15,2.16,1.95,3.86,4.15,3.86h5.17c2.19,0,3.99-1.71,4.15-3.86c5.01-0.06,9.61-0.17,13.61-0.31v4.34c0,1.35,1.09,2.44,2.44,2.44
	c1.35,0,2.44-1.1,2.44-2.44v-4.52c3.32-0.13,6-0.27,7.84-0.37v22.47H73.06z M74.98,44.31c-1.3,0.08-4.77,0.28-9.76,0.5V18.56h9.76
	V44.31z"/>
</svg>
