<?xml version="1.0" encoding="utf-8"?>
<!-- Generator: Adobe Illustrator 25.2.1, SVG Export Plug-In . SVG Version: 6.00 Build 0)  -->
<svg version="1.1" id="Layer_1" xmlns="http://www.w3.org/2000/svg" xmlns:xlink="http://www.w3.org/1999/xlink" x="0px" y="0px"
	 viewBox="0 0 80 80" style="enable-background:new 0 0 80 80;" xml:space="preserve">
<style type="text/css">
	.st0{fill:#262626;}
	.st1{fill:#FFFFFF;}
	.st2{fill:#302E2E;}
	.st3{fill-rule:evenodd;clip-rule:evenodd;fill:#FFFFFF;}
	.st4{fill-rule:evenodd;clip-rule:evenodd;fill:#C4C4C4;}
	.st5{fill:#C4C4C4;}
	.st6{fill:#E2E2E2;}
	.st7{fill:#A3A3A3;}
	.st8{clip-path:url(#SVGID_2_);}
	.st9{fill:#F6C434;}
	.st10{fill-rule:evenodd;clip-rule:evenodd;fill:#F6C434;}
	.st11{fill:#242729;}
	.st12{fill:#A5A5A5;}
	.st13{fill:#F6C358;}
	.st14{fill:#EBF0F3;}
	.st15{fill:#FCD462;}
	.st16{fill:#E2E5E7;}
	.st17{fill:#B0B7BD;}
	.st18{fill:#CAD1D8;}
	.st19{fill:#F15642;}
	.st20{fill:#6344FF;}
	.st21{fill:#30C668;}
	.st22{fill:#F02F60;}
	.st23{fill-rule:evenodd;clip-rule:evenodd;fill:#F02F60;}
	.st24{fill:#0B6AF6;}
	.st25{fill:#888888;}
</style>
<g>
	<path class="st25" d="M43.8,38.51l-9.53-16.53c-0.54-0.92-1.52-1.49-2.59-1.49H12.58c-1.07,0-2.06,0.57-2.59,1.49L0.46,38.51
		c-0.54,0.92-0.54,2.06,0,2.98l9.53,16.53c0.54,0.92,1.52,1.49,2.59,1.49h19.09c1.07,0,2.06-0.57,2.59-1.49l9.53-16.53
		C44.33,40.57,44.33,39.43,43.8,38.51z M29.92,53.4H14.31L6.51,40l7.8-13.52h15.64L37.84,40L29.92,53.4z"/>
	<path class="st25" d="M69.98,42.47c-0.54-0.92-1.52-1.49-2.59-1.49H48.29c-1.07,0-2.06,0.57-2.59,1.49L36.17,59
		c-0.54,0.92-0.54,2.06,0,2.98l9.53,16.53c0.54,0.92,1.52,1.49,2.59,1.49h19.09c1.07,0,2.06-0.57,2.59-1.49l9.56-16.5
		c0.54-0.92,0.54-2.06,0-2.98L69.98,42.47z M65.66,74.04H50.02l-7.8-13.52L50.02,47h15.64l7.92,13.49L65.66,74.04z"/>
	<path class="st25" d="M45.67,37.53c0.54,0.92,1.52,1.49,2.59,1.49h19.09c1.07,0,2.05-0.57,2.59-1.49L79.54,21
		c0.54-0.92,0.54-2.06,0-2.98L70.01,1.49C69.47,0.57,68.49,0,67.42,0H48.29c-1.07,0-2.06,0.57-2.59,1.49l-9.56,16.5
		c-0.54,0.92-0.54,2.06,0,2.98L45.67,37.53z M50.02,5.96h15.64l7.92,13.55l-7.8,13.52H50.02l-7.8-13.52L50.02,5.96z"/>
</g>
</svg>
