<?xml version="1.0" encoding="utf-8"?>
<!-- Generator: Adobe Illustrator 25.2.1, SVG Export Plug-In . SVG Version: 6.00 Build 0)  -->
<svg version="1.1" id="Layer_1" xmlns="http://www.w3.org/2000/svg" xmlns:xlink="http://www.w3.org/1999/xlink" x="0px" y="0px"
	 viewBox="0 0 80 80" style="enable-background:new 0 0 80 80;" xml:space="preserve">
<style type="text/css">
	.st0{fill:#262626;}
	.st1{fill:#FFFFFF;}
	.st2{fill:#302E2E;}
	.st3{fill-rule:evenodd;clip-rule:evenodd;fill:#FFFFFF;}
	.st4{fill-rule:evenodd;clip-rule:evenodd;fill:#C4C4C4;}
	.st5{fill:#C4C4C4;}
	.st6{fill:#E2E2E2;}
	.st7{fill:#A3A3A3;}
	.st8{clip-path:url(#SVGID_2_);}
	.st9{fill:#F6C434;}
	.st10{fill-rule:evenodd;clip-rule:evenodd;fill:#F6C434;}
	.st11{fill:#242729;}
	.st12{fill:#A5A5A5;}
	.st13{fill:#F6C358;}
	.st14{fill:#EBF0F3;}
	.st15{fill:#FCD462;}
	.st16{fill:#E2E5E7;}
	.st17{fill:#B0B7BD;}
	.st18{fill:#CAD1D8;}
	.st19{fill:#F15642;}
	.st20{fill:#6344FF;}
	.st21{fill:#30C668;}
	.st22{fill:#F02F60;}
	.st23{fill-rule:evenodd;clip-rule:evenodd;fill:#F02F60;}
	.st24{fill:#0B6AF6;}
	.st25{fill:#888888;}
</style>
<g>
	<path class="st2" d="M22.49,15.71c-6.18,0-11.16,4.98-11.16,11.16c0,6.18,4.98,11.16,11.16,11.16s11.16-4.98,11.16-11.16
		C33.65,20.68,28.67,15.71,22.49,15.71z M22.49,35.53c-4.72,0-8.58-3.86-8.58-8.58s3.86-8.58,8.58-8.58s8.58,3.86,8.58,8.58
		S27.21,35.53,22.49,35.53z"/>
	<path class="st2" d="M27.81,48.16v-2.83c1.37-0.43,2.66-0.94,3.95-1.63l1.97,1.97c0.52,0.51,1.29,0.51,1.8,0l5.75-5.75
		c0.51-0.52,0.51-1.29,0-1.8l-1.97-1.97c0.69-1.2,1.2-2.58,1.63-3.95h2.83c0.69,0,1.29-0.6,1.29-1.29v-8.07
		c0-0.69-0.6-1.29-1.29-1.29h-2.92c-0.43-1.37-0.94-2.66-1.63-3.95l1.97-1.97c0.52-0.52,0.52-1.29,0-1.8l-5.75-5.75
		c-0.52-0.52-1.29-0.52-1.8,0l-1.97,1.97c-1.2-0.69-2.58-1.2-3.95-1.63V5.67c0-0.69-0.6-1.29-1.29-1.29h-8.07
		c-0.69,0-1.29,0.6-1.29,1.29V8.5c-1.37,0.43-2.66,0.94-3.95,1.63l-1.97-1.97c-0.52-0.52-1.37-0.52-1.8,0l-5.75,5.75
		c-0.52,0.52-0.52,1.29,0,1.8l2.06,1.97c-0.69,1.2-1.2,2.58-1.63,3.95H1.29C0.6,21.63,0,22.23,0,22.92v8.07
		c0,0.69,0.52,1.29,1.29,1.29h2.83c0.43,1.37,0.94,2.66,1.63,3.95L3.78,38.2c-0.52,0.51-0.52,1.29,0,1.8l5.75,5.75
		c0.52,0.52,1.37,0.52,1.8,0l1.97-1.97c1.2,0.69,2.58,1.2,3.95,1.63v2.83c0,0.69,0.6,1.29,1.29,1.29h8.07
		C27.21,49.44,27.81,48.84,27.81,48.16z M25.24,44.38v2.49h-5.49v-2.49c0-0.6-0.43-1.12-1.03-1.29c-1.8-0.43-3.43-1.12-4.98-2.06
		c-0.52-0.34-1.2-0.26-1.63,0.17l-1.8,1.8l-3.86-3.86l1.8-1.8c0.43-0.43,0.52-1.12,0.17-1.63c-0.94-1.55-1.63-3.26-2.06-4.98
		c-0.17-0.6-0.69-1.03-1.29-1.03H2.58v-5.49h2.49c0.6,0,1.12-0.43,1.29-1.03c0.43-1.8,1.12-3.43,2.06-4.98
		c0.34-0.52,0.26-1.2-0.17-1.63l-1.8-1.8l3.86-3.86l1.8,1.8c0.43,0.43,1.12,0.52,1.63,0.17c1.55-0.94,3.26-1.63,4.98-2.06
		c0.6-0.17,1.03-0.69,1.03-1.29V7.04h5.49v2.49c0,0.6,0.43,1.12,1.03,1.29c1.8,0.43,3.43,1.12,4.98,2.06
		c0.52,0.34,1.2,0.26,1.63-0.17l1.8-1.8l3.86,3.86l-1.8,1.8c-0.43,0.43-0.52,1.12-0.17,1.63c0.94,1.55,1.63,3.26,2.06,4.98
		c0.17,0.6,0.69,1.03,1.29,1.03h2.49v5.49h-2.49c-0.6,0-1.12,0.43-1.29,1.03c-0.43,1.8-1.12,3.43-2.06,4.98
		c-0.34,0.52-0.26,1.2,0.17,1.63l1.8,1.8l-3.86,3.86l-1.8-1.8c-0.43-0.43-1.12-0.52-1.63-0.17c-1.55,0.94-3.26,1.63-4.98,2.06
		C25.67,43.26,25.24,43.78,25.24,44.38z"/>
	<path class="st2" d="M60.6,38.11c-5.41,0-9.79,4.38-9.79,9.79c0,5.41,4.38,9.7,9.79,9.7c5.41,0,9.79-4.38,9.79-9.79
		C70.39,42.4,66.01,38.11,60.6,38.11z M60.6,55.02c-3.95,0-7.21-3.18-7.21-7.21s3.18-7.21,7.21-7.21c3.95,0,7.21,3.18,7.21,7.21
		S64.55,55.02,60.6,55.02z"/>
	<path class="st2" d="M78.71,43.09h-2.23c-0.34-1.12-0.77-2.15-1.29-3.09l1.63-1.63c0.51-0.52,0.51-1.29,0-1.8l-4.89-4.89
		c-0.52-0.52-1.29-0.52-1.8,0l-1.63,1.63c-1.03-0.52-2.06-0.94-3.09-1.29V29.7c0-0.69-0.6-1.29-1.29-1.29h-6.95
		c-0.69,0-1.29,0.6-1.29,1.29v2.23c-1.12,0.34-2.15,0.77-3.09,1.29l-1.63-1.63c-0.52-0.52-1.29-0.52-1.8,0l-4.98,4.98
		c-0.52,0.52-0.52,1.29,0,1.8L46.01,40c-0.51,1.03-0.94,2.06-1.29,3.09h-2.23c-0.69,0-1.29,0.6-1.29,1.29v6.95
		c0,0.69,0.6,1.29,1.29,1.29h2.23c0.34,1.12,0.77,2.15,1.29,3.09l-1.63,1.63c-0.52,0.52-0.52,1.29,0,1.8l4.89,4.89
		c0.51,0.51,1.29,0.51,1.8,0l1.63-1.63c1.03,0.52,2.06,0.94,3.09,1.29v2.23c0,0.69,0.6,1.29,1.29,1.29h6.95
		c0.69,0,1.29-0.6,1.29-1.29v-2.23c1.12-0.34,2.15-0.77,3.09-1.29l1.63,1.63c0.52,0.51,1.29,0.51,1.8,0l4.89-4.89
		c0.52-0.52,0.52-1.29,0-1.8l-1.54-1.63c0.51-1.03,0.94-2.06,1.29-3.09h2.23c0.69,0,1.29-0.6,1.29-1.29v-6.95
		C80,43.61,79.48,43.09,78.71,43.09z M77.42,49.96h-1.97c-0.6,0-1.12,0.43-1.29,1.03c-0.34,1.54-0.94,2.92-1.72,4.21
		c-0.34,0.51-0.26,1.2,0.17,1.63l1.37,1.37l-3.09,3.09l-1.37-1.37c-0.43-0.43-1.12-0.51-1.63-0.17c-1.29,0.86-2.75,1.37-4.21,1.72
		c-0.6,0.17-1.03,0.69-1.03,1.29v1.97h-4.38v-1.97c0-0.6-0.43-1.12-1.03-1.29c-1.55-0.34-2.92-0.94-4.21-1.72
		c-0.52-0.34-1.2-0.26-1.63,0.17l-1.37,1.37l-3.09-3.09l1.37-1.37c0.43-0.43,0.52-1.12,0.17-1.63c-0.86-1.29-1.37-2.75-1.72-4.21
		c-0.17-0.6-0.69-1.03-1.29-1.03h-1.97v-4.38h1.97c0.6,0,1.12-0.43,1.29-1.03c0.34-1.54,0.94-2.92,1.72-4.21
		c0.34-0.51,0.26-1.2-0.17-1.63l-1.2-1.29l3.09-3.09l1.37,1.37c0.43,0.43,1.12,0.52,1.63,0.17c1.29-0.86,2.75-1.37,4.21-1.72
		c0.6-0.17,1.03-0.69,1.03-1.29V30.9h4.38v1.97c0,0.6,0.43,1.12,1.03,1.29c1.55,0.34,2.92,0.94,4.21,1.72
		c0.52,0.34,1.2,0.26,1.63-0.17l1.37-1.37l3.09,3.09l-1.37,1.37c-0.43,0.43-0.52,1.12-0.17,1.63c0.86,1.29,1.37,2.75,1.72,4.21
		c0.17,0.6,0.69,1.03,1.29,1.03h1.97v4.29H77.42z"/>
	<path class="st2" d="M31.42,57.68c-2.83,0-5.06,2.23-5.06,5.06c0,2.83,2.23,5.06,5.06,5.06c2.83,0,5.06-2.23,5.06-5.06
		C36.48,59.91,34.16,57.68,31.42,57.68z M31.42,65.24c-1.37,0-2.49-1.12-2.49-2.49c0-1.37,1.12-2.49,2.49-2.49
		c1.37,0,2.49,1.12,2.49,2.49C33.91,64.12,32.79,65.24,31.42,65.24z"/>
	<path class="st2" d="M42.92,59.23H41.8c-0.17-0.52-0.34-0.94-0.6-1.46L41.97,57c0.52-0.52,0.52-1.29,0-1.8l-3.09-3.09
		c-0.52-0.52-1.37-0.52-1.8,0l-0.77,0.77c-0.43-0.26-0.94-0.43-1.46-0.6v-1.12c0-0.69-0.6-1.29-1.29-1.29h-4.38
		c-0.69,0-1.29,0.6-1.29,1.29v1.12c-0.52,0.17-0.94,0.34-1.46,0.6l-0.77-0.77c-0.26-0.26-0.6-0.34-0.94-0.34
		c-0.34,0-0.69,0.17-0.94,0.34l-3.09,3.09c-0.52,0.52-0.52,1.29,0,1.8l0.77,0.77c-0.26,0.43-0.43,0.94-0.6,1.46h-1.12
		c-0.69,0-1.29,0.6-1.29,1.29v4.38c0,0.69,0.6,1.29,1.29,1.29h1.12c0.17,0.52,0.34,0.94,0.6,1.46l-0.77,0.77
		c-0.52,0.52-0.52,1.29,0,1.8l3.09,3.09c0.52,0.52,1.37,0.52,1.8,0l0.77-0.77c0.43,0.26,0.94,0.43,1.46,0.6v1.2
		c0,0.69,0.6,1.29,1.29,1.29h4.38c0.69,0,1.29-0.6,1.29-1.29v-1.12c0.52-0.17,0.94-0.34,1.46-0.6L37,73.39
		c0.26,0.26,0.6,0.34,0.94,0.34c0.34,0,0.69-0.17,0.94-0.34l3.09-3.09c0.52-0.51,0.52-1.29,0-1.8l-0.77-0.77
		c0.26-0.43,0.43-0.94,0.6-1.46h1.12c0.69,0,1.29-0.6,1.29-1.29V60.6C44.21,59.83,43.69,59.23,42.92,59.23z M41.63,63.69h-0.77
		c-0.6,0-1.12,0.43-1.29,1.03c-0.17,0.94-0.6,1.8-1.03,2.58c-0.34,0.51-0.26,1.2,0.17,1.63l0.52,0.52l-1.29,1.29l-0.51-0.6
		c-0.43-0.43-1.12-0.51-1.63-0.17c-0.77,0.52-1.63,0.86-2.58,1.03c-0.6,0.17-1.03,0.69-1.03,1.29v0.77h-1.8v-0.77
		c0-0.6-0.43-1.12-1.03-1.29c-0.94-0.17-1.8-0.6-2.58-1.03c-0.52-0.34-1.2-0.26-1.63,0.17l-0.52,0.52l-1.29-1.29l0.52-0.52
		c0.43-0.43,0.52-1.12,0.17-1.63c-0.52-0.77-0.86-1.63-1.03-2.58c-0.17-0.6-0.69-1.03-1.29-1.03h-0.6v-1.8h0.77
		c0.6,0,1.12-0.43,1.29-1.03c0.17-0.94,0.6-1.8,1.03-2.58c0.34-0.52,0.26-1.2-0.17-1.63l-0.52-0.52l1.29-1.29l0.52,0.52
		c0.43,0.43,1.12,0.51,1.63,0.17c0.77-0.52,1.63-0.86,2.58-1.03c0.6-0.17,1.03-0.69,1.03-1.29v-0.77h1.72v0.77
		c0,0.6,0.43,1.12,1.03,1.29c0.94,0.17,1.8,0.6,2.58,1.03c0.52,0.34,1.2,0.26,1.63-0.17l0.51-0.52l1.29,1.29l-0.52,0.52
		c-0.52,0.6-0.52,1.2-0.26,1.72c0.52,0.77,0.86,1.63,1.03,2.57c0.17,0.6,0.69,1.03,1.29,1.03h0.77V63.69z"/>
</g>
</svg>
