<?xml version="1.0" encoding="utf-8"?>
<!-- Generator: Adobe Illustrator 25.2.1, SVG Export Plug-In . SVG Version: 6.00 Build 0)  -->
<svg version="1.1" id="Layer_1" xmlns="http://www.w3.org/2000/svg" xmlns:xlink="http://www.w3.org/1999/xlink" x="0px" y="0px"
	 viewBox="0 0 80 80" style="enable-background:new 0 0 80 80;" xml:space="preserve">
<style type="text/css">
	.st0{fill:#262626;}
	.st1{fill:#FFFFFF;}
	.st2{fill:#302E2E;}
	.st3{fill-rule:evenodd;clip-rule:evenodd;fill:#FFFFFF;}
	.st4{fill-rule:evenodd;clip-rule:evenodd;fill:#C4C4C4;}
	.st5{fill:#C4C4C4;}
	.st6{fill:#E2E2E2;}
	.st7{fill:#A3A3A3;}
	.st8{clip-path:url(#SVGID_2_);}
	.st9{fill:#F6C434;}
	.st10{fill-rule:evenodd;clip-rule:evenodd;fill:#F6C434;}
	.st11{fill:#242729;}
	.st12{fill:#A5A5A5;}
	.st13{fill:#F6C358;}
	.st14{fill:#EBF0F3;}
	.st15{fill:#FCD462;}
	.st16{fill:#E2E5E7;}
	.st17{fill:#B0B7BD;}
	.st18{fill:#CAD1D8;}
	.st19{fill:#F15642;}
	.st20{fill:#6344FF;}
	.st21{fill:#30C668;}
	.st22{fill:#F02F60;}
	.st23{fill-rule:evenodd;clip-rule:evenodd;fill:#F02F60;}
	.st24{fill:#0B6AF6;}
	.st25{fill:#888888;}
</style>
<path class="st23" d="M26.67,20c-0.67,0-1.21-0.55-1.21-1.21c0-0.67,0.55-1.21,1.21-1.21h24.24c0.67,0,1.21,0.55,1.21,1.21
	c0,0.67-0.55,1.21-1.21,1.21v21.82h24.24c0.67,0,1.21,0.55,1.21,1.21c0,0.67-0.55,1.21-1.21,1.21V60h3.64
	c0.67,0,1.21,0.55,1.21,1.21c0,0.67-0.55,1.21-1.21,1.21H1.21C0.55,62.42,0,61.88,0,61.21C0,60.55,0.55,60,1.21,60h3.64V39.39
	c0-0.4,0.21-0.79,0.55-1.01l10.91-7.27c0.41-0.27,0.93-0.27,1.35,0l9.02,6.01V20z M50.91,44.24V60h21.82V44.24H50.91z M29.09,20v40
	h19.39V20H29.09z M7.27,40.05V60h19.39V40.05l-9.7-6.46L7.27,40.05z M14.55,53.94c-0.67,0-1.21-0.55-1.21-1.21s0.55-1.21,1.21-1.21
	h4.85c0.67,0,1.21,0.55,1.21,1.21s-0.55,1.21-1.21,1.21H14.55z M14.55,45.45c-0.67,0-1.21-0.55-1.21-1.21
	c0-0.67,0.55-1.21,1.21-1.21h4.85c0.67,0,1.21,0.55,1.21,1.21c0,0.67-0.55,1.21-1.21,1.21H14.55z M36.36,53.94
	c-0.67,0-1.21-0.55-1.21-1.21s0.55-1.21,1.21-1.21h4.85c0.67,0,1.21,0.55,1.21,1.21s-0.55,1.21-1.21,1.21H36.36z M56.97,50.3
	c0-0.67,0.55-1.21,1.21-1.21c0.67,0,1.21,0.55,1.21,1.21v3.64c0,0.67-0.55,1.21-1.21,1.21c-0.67,0-1.21-0.55-1.21-1.21V50.3z
	 M64.24,50.3c0-0.67,0.55-1.21,1.21-1.21c0.67,0,1.21,0.55,1.21,1.21v3.64c0,0.67-0.55,1.21-1.21,1.21c-0.67,0-1.21-0.55-1.21-1.21
	V50.3z M36.36,45.45c-0.67,0-1.21-0.55-1.21-1.21c0-0.67,0.55-1.21,1.21-1.21h4.85c0.67,0,1.21,0.55,1.21,1.21
	c0,0.67-0.55,1.21-1.21,1.21H36.36z M36.36,36.97c-0.67,0-1.21-0.55-1.21-1.21c0-0.67,0.55-1.21,1.21-1.21h4.85
	c0.67,0,1.21,0.55,1.21,1.21c0,0.67-0.55,1.21-1.21,1.21H36.36z M36.36,28.48c-0.67,0-1.21-0.55-1.21-1.21
	c0-0.67,0.55-1.21,1.21-1.21h4.85c0.67,0,1.21,0.55,1.21,1.21c0,0.67-0.55,1.21-1.21,1.21H36.36z"/>
</svg>
