<?xml version="1.0" encoding="utf-8"?>
<!-- Generator: Adobe Illustrator 25.2.1, SVG Export Plug-In . SVG Version: 6.00 Build 0)  -->
<svg version="1.1" id="Layer_1" xmlns="http://www.w3.org/2000/svg" xmlns:xlink="http://www.w3.org/1999/xlink" x="0px" y="0px"
	 viewBox="0 0 64 64" style="enable-background:new 0 0 64 64;" xml:space="preserve">
<style type="text/css">
	.st0{fill:#262626;}
	.st1{fill:#FFFFFF;}
	.st2{fill:#302E2E;}
	.st3{fill-rule:evenodd;clip-rule:evenodd;fill:#FFFFFF;}
	.st4{fill-rule:evenodd;clip-rule:evenodd;fill:#C4C4C4;}
	.st5{fill:#C4C4C4;}
	.st6{fill:#E2E2E2;}
	.st7{fill:#A3A3A3;}
	.st8{clip-path:url(#SVGID_2_);}
	.st9{fill:#F6C434;}
	.st10{fill-rule:evenodd;clip-rule:evenodd;fill:#F6C434;}
	.st11{fill:#242729;}
	.st12{fill:#A5A5A5;}
	.st13{fill:#F6C358;}
	.st14{fill:#EBF0F3;}
	.st15{fill:#FCD462;}
	.st16{fill:#E2E5E7;}
	.st17{fill:#B0B7BD;}
	.st18{fill:#CAD1D8;}
	.st19{fill:#F15642;}
	.st20{fill:#6344FF;}
	.st21{fill:#30C668;}
	.st22{fill:#F02F60;}
	.st23{fill-rule:evenodd;clip-rule:evenodd;fill:#F02F60;}
	.st24{fill:#0B6AF6;}
	.st25{fill:#888888;}
</style>
<g>
	<path class="st5" d="M55.83,28.58c1.87-2.12,3.03-4.84,3.03-7.86c0-6.53-5.32-11.85-11.85-11.85c-4.23,0-7.98,2.24-10.04,5.63
		c-0.36-0.06-0.73-0.06-1.03-0.06c-6.53,0-11.85,5.32-11.85,11.85c0,3.03,1.15,5.75,3.03,7.86c-4.78,2.05-8.17,6.84-8.17,12.34v7.14
		c0,0.85,0.67,1.51,1.51,1.51h30.91c0.85,0,1.51-0.67,1.51-1.51v-4.05h9.62c0.85,0,1.51-0.67,1.51-1.51v-7.14
		C64,35.35,60.61,30.64,55.83,28.58z M60.97,46.55h-8.11v-0.06c0-5.5-3.39-10.29-8.17-12.34c0.42-0.49,0.85-1.03,1.21-1.63
		c0.36,0.06,0.73,0.06,1.03,0.06c2.24,0,4.36-0.67,6.11-1.76c4.54,1.15,7.86,5.2,7.86,10.04v5.68L60.97,46.55L60.97,46.55z
		 M21.9,52.05v-5.63c0-4.84,3.32-8.95,7.86-10.04c1.81,1.09,3.87,1.76,6.11,1.76c2.24,0,4.36-0.67,6.11-1.76
		c4.54,1.15,7.86,5.2,7.86,10.04v5.63H21.9z M27.04,26.22c0-4.9,3.99-8.83,8.83-8.83c4.9,0,8.83,3.99,8.83,8.83
		s-3.99,8.83-8.83,8.83C30.97,35.11,27.04,31.12,27.04,26.22z M55.83,20.71c0,4.78-3.81,8.65-8.53,8.83
		c0.3-1.03,0.49-2.12,0.49-3.27c0-5.08-3.21-9.38-7.62-11.07c1.63-2,4.11-3.32,6.89-3.32C51.84,11.89,55.83,15.81,55.83,20.71z"/>
	<path class="st5" d="M20.14,26.7c0-0.85-0.67-1.51-1.51-1.51h-7.02v-7.02c0-0.85-0.67-1.51-1.51-1.51s-1.51,0.67-1.51,1.51v7.08
		H1.51C0.67,25.25,0,25.92,0,26.77c0,0.85,0.67,1.51,1.51,1.51h7.08v7.08c0,0.85,0.67,1.51,1.51,1.51c0.84,0,1.52-0.66,1.52-1.51
		v-7.14h7.08C19.48,28.22,20.14,27.55,20.14,26.7z"/>
</g>
</svg>
