<?xml version="1.0" encoding="utf-8"?>
<!-- Generator: Adobe Illustrator 25.2.1, SVG Export Plug-In . SVG Version: 6.00 Build 0)  -->
<svg version="1.1" id="Layer_1" xmlns="http://www.w3.org/2000/svg" xmlns:xlink="http://www.w3.org/1999/xlink" x="0px" y="0px"
	 viewBox="0 0 64 64" style="enable-background:new 0 0 64 64;" xml:space="preserve">
<style type="text/css">
	.st0{fill:#262626;}
	.st1{fill:#FFFFFF;}
	.st2{fill:#302E2E;}
	.st3{fill-rule:evenodd;clip-rule:evenodd;fill:#FFFFFF;}
	.st4{fill-rule:evenodd;clip-rule:evenodd;fill:#C4C4C4;}
	.st5{fill:#C4C4C4;}
	.st6{fill:#E2E2E2;}
	.st7{fill:#A3A3A3;}
	.st8{clip-path:url(#SVGID_2_);}
	.st9{fill:#F6C434;}
	.st10{fill-rule:evenodd;clip-rule:evenodd;fill:#F6C434;}
	.st11{fill:#242729;}
	.st12{fill:#A5A5A5;}
	.st13{fill:#F6C358;}
	.st14{fill:#EBF0F3;}
	.st15{fill:#FCD462;}
	.st16{fill:#E2E5E7;}
	.st17{fill:#B0B7BD;}
	.st18{fill:#CAD1D8;}
	.st19{fill:#F15642;}
	.st20{fill:#6344FF;}
	.st21{fill:#30C668;}
	.st22{fill:#F02F60;}
	.st23{fill-rule:evenodd;clip-rule:evenodd;fill:#F02F60;}
	.st24{fill:#0B6AF6;}
	.st25{fill:#888888;}
</style>
<g>
	<path class="st12" d="M37.05,40.96c-0.94-0.81-1.89-1.82-2.96-2.9c-0.74-0.81-1.55-1.95-2.22-3.17c1.28-4.38,1.89-8.56,0.54-10.58
		c-0.61-0.94-1.55-1.41-2.76-1.41c-1.35,0-2.36,0.61-2.83,1.75c-1.08,2.43,0.54,6.87,2.49,10.51c-0.54,1.75-1.21,3.64-2.02,5.73
		c-0.47,1.15-1.01,2.29-1.55,3.37c-5.52,2.16-8.89,4.58-9.36,6.87c-0.2,1.08,0.13,2.02,1.08,2.76c0.54,0.4,1.15,0.67,1.82,0.67
		c0.27,0,0.54-0.07,0.81-0.13c2.56-0.67,5.32-4.45,7.34-8.29c1.21-0.47,2.63-0.94,4.18-1.35c1.82-0.54,3.44-0.94,4.85-1.21
		c2.63,2.09,4.85,3.23,6.8,3.23c1.48,0.07,2.56-0.47,3.57-1.48c1.48-1.48,0.88-2.76,0.67-3.1C46.28,40.35,42.58,39.95,37.05,40.96z
		 M19.4,52.08c-0.27,0.07-0.4,0-0.54-0.07c-0.27-0.2-0.27-0.34-0.2-0.47c0.13-0.81,1.68-2.29,5.05-3.91
		C22.1,50.06,20.48,51.81,19.4,52.08z M28.97,25.6c0.07-0.13,0.13-0.34,0.67-0.34c0.47,0,0.67,0.2,0.81,0.34
		c0.61,0.88,0.54,3.1-0.2,6.06C29.11,29.1,28.5,26.68,28.97,25.6z M30.86,42.44c-0.67,0.2-1.35,0.4-2.02,0.61
		c0.2-0.47,0.4-0.94,0.61-1.35c0.47-1.28,1.01-2.56,1.48-3.91c0.54,0.74,1.01,1.41,1.48,1.89c0.61,0.67,1.21,1.28,1.82,1.89
		C33.15,41.84,32,42.11,30.86,42.44z M45.07,43.66c-0.47,0.54-1.08,0.74-1.82,0.74c-1.01,0-2.22-0.47-3.64-1.41
		C43.52,42.44,45.75,42.85,45.07,43.66z"/>
	<path class="st12" d="M56.12,16.24L41.36,1.48C40.42,0.54,39.14,0,37.86,0H11.39c-1.35,0-2.56,0.54-3.5,1.48
		C6.94,2.43,6.4,3.64,6.4,4.99v54.03c0,2.76,2.22,4.99,4.99,4.99h41.23c2.76,0,4.99-2.22,4.99-4.99V19.74
		C57.6,18.46,57.06,17.18,56.12,16.24z M53.29,17.45H42.37c-1.21,0-2.22-1.01-2.22-2.22V4.38L53.29,17.45z M52.61,61.1H11.39
		c-1.15,0-2.09-0.94-2.09-2.09V4.99c0-0.54,0.2-1.08,0.61-1.48c0.4-0.4,0.94-0.61,1.48-0.61h25.87v12.33c0,2.83,2.29,5.12,5.12,5.12
		H54.7v38.67C54.7,60.16,53.76,61.1,52.61,61.1z"/>
</g>
</svg>
