<?xml version="1.0" encoding="utf-8"?>
<!-- Generator: Adobe Illustrator 25.2.1, SVG Export Plug-In . SVG Version: 6.00 Build 0)  -->
<svg version="1.1" id="Layer_1" xmlns="http://www.w3.org/2000/svg" xmlns:xlink="http://www.w3.org/1999/xlink" x="0px" y="0px"
	 viewBox="0 0 64 64" style="enable-background:new 0 0 64 64;" xml:space="preserve">
<style type="text/css">
	.st0{fill:#262626;}
	.st1{fill:#FFFFFF;}
	.st2{fill:#302E2E;}
	.st3{fill-rule:evenodd;clip-rule:evenodd;fill:#FFFFFF;}
	.st4{fill-rule:evenodd;clip-rule:evenodd;fill:#C4C4C4;}
	.st5{fill:#C4C4C4;}
	.st6{fill:#E2E2E2;}
	.st7{fill:#A3A3A3;}
	.st8{clip-path:url(#SVGID_2_);}
	.st9{fill:#F6C434;}
	.st10{fill-rule:evenodd;clip-rule:evenodd;fill:#F6C434;}
	.st11{fill:#242729;}
	.st12{fill:#A5A5A5;}
	.st13{fill:#F6C358;}
	.st14{fill:#EBF0F3;}
	.st15{fill:#FCD462;}
	.st16{fill:#E2E5E7;}
	.st17{fill:#B0B7BD;}
	.st18{fill:#CAD1D8;}
	.st19{fill:#F15642;}
	.st20{fill:#6344FF;}
	.st21{fill:#30C668;}
	.st22{fill:#F02F60;}
	.st23{fill-rule:evenodd;clip-rule:evenodd;fill:#F02F60;}
	.st24{fill:#0B6AF6;}
	.st25{fill:#888888;}
</style>
<g>
	<path class="st12" d="M56.77,37.07c-0.45-0.26-0.93-0.48-1.42-0.64v-8.86c4.19-1.42,6.43-5.96,5.01-10.14
		c-1.42-4.18-5.96-6.43-10.14-5.01c-1,0.34-1.92,0.87-2.71,1.56l-7.69-4.43c0.86-4.33-1.96-8.55-6.29-9.4
		c-4.34-0.85-8.55,1.96-9.41,6.29c-0.21,1.03-0.21,2.08,0,3.11l-7.64,4.43c-3.32-2.92-8.37-2.59-11.28,0.73
		c-2.92,3.32-2.59,8.38,0.73,11.29c0.8,0.7,1.73,1.24,2.73,1.57v8.85c-4.19,1.41-6.45,5.95-5.03,10.14C3.78,47.07,4,47.55,4.26,48
		c1.06,1.84,2.81,3.18,4.86,3.73C9.8,51.91,10.49,52,11.2,52c1.93-0.01,3.79-0.7,5.24-1.97l7.73,4.43
		c-0.85,4.34,1.98,8.54,6.31,9.39c4.34,0.85,8.54-1.98,9.39-6.31c0.2-1.02,0.2-2.06,0-3.08l7.68-4.43c0.39,0.34,0.81,0.64,1.26,0.9
		c1.21,0.7,2.59,1.07,3.99,1.07c0.7,0,1.4-0.09,2.08-0.28c4.27-1.14,6.8-5.53,5.65-9.8c-0.55-2.05-1.89-3.8-3.73-4.86L56.77,37.07z
		 M50.77,16.54c1.91-1.11,4.37-0.46,5.47,1.46c1.11,1.91,0.46,4.37-1.46,5.47c-1.91,1.11-4.37,0.46-5.47-1.46
		c-0.53-0.92-0.68-2.01-0.41-3.04C49.18,17.94,49.85,17.07,50.77,16.54z M45.24,17.29c-0.08,0.21-0.14,0.42-0.2,0.64
		c-1.15,4.26,1.37,8.65,5.63,9.8c0.23,0.06,0.46,0.11,0.68,0.16v8.24c-0.22,0.04-0.44,0.09-0.66,0.15
		c-1.39,0.37-2.64,1.11-3.64,2.13l-7.36-4.27c1.19-4.25-1.3-8.67-5.55-9.86c-0.04-0.01-0.09-0.02-0.14-0.04v-8.53
		c1.6-0.42,3.04-1.32,4.1-2.58L45.24,17.29z M27.98,32c0-2.21,1.79-4,4-4c2.21,0,4,1.79,4,4c0,2.21-1.79,4-4,4
		C29.78,36,27.98,34.21,27.98,32z M31.99,4.01C34.2,4,35.99,5.79,36,8c0.01,2.21-1.78,4-4,4.01c-2.21,0.01-4-1.78-4.01-4V8.01
		C27.99,5.81,29.78,4.01,31.99,4.01z M29.98,15.75v8.53c-4.27,1.12-6.84,5.48-5.72,9.76c0.01,0.04,0.02,0.09,0.04,0.14l-7.38,4.23
		c-1-1.02-2.25-1.76-3.64-2.13c-0.22-0.06-0.44-0.11-0.66-0.15v-8.24c0.22-0.04,0.44-0.09,0.66-0.15c4.27-1.14,6.8-5.52,5.65-9.78
		c-0.06-0.22-0.13-0.43-0.2-0.65l7.15-4.13C26.95,14.43,28.38,15.33,29.98,15.75z M7.74,18c1.1-1.92,3.54-2.58,5.46-1.49
		c1.92,1.1,2.58,3.54,1.49,5.46c-1.1,1.91-3.53,2.58-5.45,1.49C7.31,22.37,6.64,19.92,7.74,18C7.74,18.01,7.74,18,7.74,18z
		 M13.2,47.46c-1.91,1.11-4.36,0.45-5.47-1.46c-1.11-1.91-0.46-4.36,1.46-5.47c0.61-0.36,1.31-0.54,2.01-0.54
		c0.36,0,0.7,0.04,1.05,0.14c2.13,0.58,3.4,2.77,2.82,4.91c-0.28,1.02-0.94,1.88-1.85,2.41L13.2,47.46z M31.99,60
		c-2.21,0-4-1.79-4-4s1.79-4,4-4c2.21,0,4,1.79,4,4v0.01C35.99,58.22,34.2,60,31.99,60z M31.99,48c-2.36,0-4.59,1.04-6.12,2.84
		l-7.15-4.12c0.57-1.56,0.63-3.26,0.19-4.86l7.37-4.27c3.09,3.14,8.15,3.18,11.29,0.09c0.03-0.03,0.06-0.06,0.09-0.09l7.37,4.27
		c-0.38,1.38-0.38,2.83,0,4.21c0.06,0.22,0.13,0.44,0.21,0.65l-7.11,4.12C36.6,49.04,34.36,47.99,31.99,48z M56.24,46
		c-1.1,1.91-3.55,2.57-5.47,1.47c-1.91-1.1-2.57-3.55-1.47-5.47c0.53-0.92,1.41-1.59,2.44-1.87c0.34-0.09,0.69-0.14,1.05-0.14
		c2.21,0.01,4,1.81,3.99,4.02C56.77,44.72,56.58,45.4,56.24,46z"/>
</g>
</svg>
