<?xml version="1.0" encoding="utf-8"?>
<!-- Generator: Adobe Illustrator 25.2.1, SVG Export Plug-In . SVG Version: 6.00 Build 0)  -->
<svg version="1.1" id="Layer_1" xmlns="http://www.w3.org/2000/svg" xmlns:xlink="http://www.w3.org/1999/xlink" x="0px" y="0px"
	 viewBox="0 0 88 88" style="enable-background:new 0 0 88 88;" xml:space="preserve">
<style type="text/css">
	.st0{fill:#262626;}
	.st1{fill:#FFFFFF;}
	.st2{fill:#302E2E;}
	.st3{fill-rule:evenodd;clip-rule:evenodd;fill:#FFFFFF;}
	.st4{fill-rule:evenodd;clip-rule:evenodd;fill:#C4C4C4;}
	.st5{fill:#C4C4C4;}
	.st6{fill:#E2E2E2;}
	.st7{fill:#A3A3A3;}
	.st8{clip-path:url(#SVGID_2_);}
	.st9{fill:#F6C434;}
	.st10{fill-rule:evenodd;clip-rule:evenodd;fill:#F6C434;}
	.st11{fill:#242729;}
	.st12{fill:#A5A5A5;}
	.st13{fill:#F6C358;}
	.st14{fill:#EBF0F3;}
	.st15{fill:#FCD462;}
	.st16{fill:#E2E5E7;}
	.st17{fill:#B0B7BD;}
	.st18{fill:#CAD1D8;}
	.st19{fill:#F15642;}
	.st20{fill:#6344FF;}
	.st21{fill:#30C668;}
	.st22{fill:#F02F60;}
	.st23{fill-rule:evenodd;clip-rule:evenodd;fill:#F02F60;}
	.st24{fill:#0B6AF6;}
	.st25{fill:#888888;}
</style>
<g>
	<path class="st5" d="M44,0L44,0c24.3,0,44,19.7,44,44l0,0c0,24.3-19.7,44-44,44l0,0C19.7,88,0,68.3,0,44l0,0C0,19.7,19.7,0,44,0z"
		/>
	<g>
		<path class="st1" d="M53.2,66.08l-0.73,2.98c-2.19,0.86-3.93,1.52-5.23,1.97c-1.3,0.45-2.81,0.68-4.54,0.68
			c-2.65,0-4.7-0.65-6.17-1.94c-1.47-1.29-2.2-2.93-2.2-4.92c0-0.77,0.05-1.56,0.16-2.37c0.11-0.81,0.29-1.72,0.53-2.73l2.73-9.67
			c0.24-0.93,0.45-1.8,0.62-2.63c0.17-0.82,0.25-1.58,0.25-2.27c0-1.23-0.26-2.1-0.76-2.58c-0.51-0.48-1.48-0.73-2.92-0.73
			c-0.71,0-1.43,0.11-2.17,0.33c-0.74,0.22-1.38,0.43-1.91,0.63l0.73-2.98c1.79-0.73,3.5-1.35,5.14-1.87
			c1.64-0.52,3.18-0.78,4.64-0.78c2.63,0,4.66,0.64,6.08,1.91c1.42,1.27,2.14,2.92,2.14,4.95c0,0.42-0.05,1.16-0.15,2.22
			c-0.1,1.06-0.28,2.03-0.55,2.92l-2.72,9.63c-0.22,0.77-0.42,1.66-0.6,2.65c-0.18,0.99-0.27,1.74-0.27,2.25
			c0,1.28,0.29,2.15,0.86,2.62c0.58,0.46,1.57,0.69,2.98,0.69c0.66,0,1.41-0.12,2.25-0.35C52.22,66.45,52.82,66.25,53.2,66.08z
			 M53.89,25.64c0,1.68-0.63,3.11-1.9,4.29c-1.27,1.18-2.79,1.77-4.58,1.77c-1.79,0-3.32-0.59-4.61-1.77
			c-1.28-1.18-1.92-2.61-1.92-4.29c0-1.67,0.64-3.11,1.92-4.3c1.28-1.19,2.81-1.79,4.61-1.79c1.79,0,3.31,0.6,4.58,1.79
			C53.26,22.53,53.89,23.97,53.89,25.64z"/>
	</g>
</g>
</svg>
