<svg width="16" height="16" viewBox="0 0 16 16" fill="none" xmlns="http://www.w3.org/2000/svg">
<path d="M14.4636 0.200684H0.693899C0.362752 0.200684 0.0952148 0.468221 0.0952148 0.799368V14.5691C0.0952148 14.9003 0.362752 15.1678 0.693899 15.1678H14.4636C14.7948 15.1678 15.0623 14.9003 15.0623 14.5691V0.799368C15.0623 0.468221 14.7948 0.200684 14.4636 0.200684ZM4.53483 12.9545H2.31409V5.81148H4.53483V12.9545ZM3.4254 4.83487C3.17082 4.83487 2.92196 4.75938 2.71028 4.61795C2.49861 4.47651 2.33363 4.27548 2.2362 4.04028C2.13878 3.80508 2.11329 3.54627 2.16296 3.29659C2.21262 3.0469 2.33521 2.81755 2.51523 2.63754C2.69524 2.45752 2.92459 2.33493 3.17428 2.28526C3.42397 2.2356 3.68278 2.26109 3.91797 2.35851C4.15317 2.45593 4.3542 2.62091 4.49564 2.83259C4.63708 3.04426 4.71257 3.29312 4.71257 3.5477C4.7107 4.25864 4.13446 4.83487 3.4254 4.83487ZM12.8491 12.9545H10.6302V9.48029C10.6302 8.65149 10.6152 7.58695 9.47585 7.58695C8.32151 7.58695 8.14378 8.48872 8.14378 9.42042V12.9545H5.92677V5.81148H8.05584V6.78808H8.08578C8.38138 6.22681 9.10541 5.63374 10.1868 5.63374C12.4356 5.63374 12.8491 7.11362 12.8491 9.03689V12.9545Z" fill="#0292D0"/>
</svg>
