<?xml version="1.0" encoding="utf-8"?>
<!-- Generator: Adobe Illustrator 25.2.1, SVG Export Plug-In . SVG Version: 6.00 Build 0)  -->
<svg version="1.1" id="Layer_1" xmlns="http://www.w3.org/2000/svg" xmlns:xlink="http://www.w3.org/1999/xlink" x="0px" y="0px"
	 viewBox="0 0 400 74.65" style="enable-background:new 0 0 400 74.65;" xml:space="preserve">
<style type="text/css">
	.st0{fill:#262626;}
	.st1{fill:#FFFFFF;}
	.st2{fill:#302E2E;}
	.st3{fill-rule:evenodd;clip-rule:evenodd;fill:#FFFFFF;}
	.st4{fill-rule:evenodd;clip-rule:evenodd;fill:#C4C4C4;}
	.st5{fill:#C4C4C4;}
	.st6{fill:#E2E2E2;}
	.st7{fill:#A3A3A3;}
	.st8{clip-path:url(#SVGID_2_);}
	.st9{fill:#F6C434;}
	.st10{fill-rule:evenodd;clip-rule:evenodd;fill:#F6C434;}
	.st11{fill:#242729;}
	.st12{fill:#A5A5A5;}
	.st13{fill:#F6C358;}
	.st14{fill:#EBF0F3;}
	.st15{fill:#FCD462;}
	.st16{fill:#E2E5E7;}
	.st17{fill:#B0B7BD;}
	.st18{fill:#CAD1D8;}
	.st19{fill:#F15642;}
	.st20{fill:#6344FF;}
	.st21{fill:#30C668;}
	.st22{fill:#F02F60;}
	.st23{fill-rule:evenodd;clip-rule:evenodd;fill:#F02F60;}
	.st24{fill:#0B6AF6;}
	.st25{fill:#888888;}
</style>
<g>
	<path id="L_1_" class="st1" d="M400,73.23h-63.7c0,0-0.06-73.07-0.06-73.07h19.38V57.7l32.59,0.1L400,73.23z"/>
	<path id="E_1_" class="st1" d="M316.37,15.35c-0.32,0-34.45,0-34.45,0v15.37l33.72,0.04V43.7l-33.72,0.05v14.3h38.54l10.41,15.22
		c0,0,0,0,0,0h-68.29V0.16h65.35"/>
	<path id="C_-_2_1_" class="st1" d="M184.05,36.8c0-17.44,14.1-36.8,41.47-36.8c17.59,0,27.02,7.8,30.26,11.59L244.01,22.7
		c-0.11,0.2-0.34,0.1-0.45,0c-3.06-3.45-9.2-7.39-17.49-7.39c-13.06,0-22.03,7.59-22.03,21.48c0,14.19,10.22,21.97,23.05,21.97
		c10.22,0,15.9-4.83,18.17-7.29c0.12-0.1,0.34-0.2,0.45,0l10.76,11.34c-5.89,5.6-15.47,11.83-30.74,11.83
		C204.27,74.65,184.05,60.94,184.05,36.8z"/>
	<path id="N_1_" class="st1" d="M157.92,35.88l0.23-35.65l19.22-0.07l0.1,73.26l0,0c0,0-52.62-35.65-52.62-35.75V73.3h-20.1V0.16
		C104.74,0.16,104.74,0.16,157.92,35.88z"/>
	<path id="I_1_" class="st1" d="M77.16,73.3V19.27L96.46,0.16V73.3H77.16z"/>
	<path id="C_-_1_1_" class="st1" d="M0,36.8C0,19.35,14.1,0,41.47,0c17.59,0,27.02,7.8,30.26,11.59L59.96,22.7
		c-0.11,0.2-0.34,0.1-0.45,0c-3.06-3.45-9.2-7.39-17.49-7.39c-13.06,0-22.03,7.59-22.03,21.48c0,14.19,10.22,21.97,23.05,21.97
		c10.22,0,15.9-4.83,18.17-7.29c0.12-0.1,0.34-0.2,0.45,0l10.76,11.34c-5.89,5.6-15.47,11.83-30.74,11.83
		C20.21,74.65,0,60.94,0,36.8z"/>
</g>
</svg>
