<?xml version="1.0" encoding="utf-8"?>
<!-- Generator: Adobe Illustrator 25.2.1, SVG Export Plug-In . SVG Version: 6.00 Build 0)  -->
<svg version="1.1" id="Layer_1" xmlns="http://www.w3.org/2000/svg" xmlns:xlink="http://www.w3.org/1999/xlink" x="0px" y="0px"
	 viewBox="0 0 64 64" style="enable-background:new 0 0 64 64;" xml:space="preserve">
<style type="text/css">
	.st0{fill:#262626;}
	.st1{fill:#FFFFFF;}
	.st2{fill:#302E2E;}
	.st3{fill-rule:evenodd;clip-rule:evenodd;fill:#FFFFFF;}
	.st4{fill-rule:evenodd;clip-rule:evenodd;fill:#C4C4C4;}
	.st5{fill:#C4C4C4;}
	.st6{fill:#E2E2E2;}
	.st7{fill:#A3A3A3;}
	.st8{clip-path:url(#SVGID_2_);}
	.st9{fill:#F6C434;}
	.st10{fill-rule:evenodd;clip-rule:evenodd;fill:#F6C434;}
	.st11{fill:#242729;}
	.st12{fill:#A5A5A5;}
	.st13{fill:#F6C358;}
	.st14{fill:#EBF0F3;}
	.st15{fill:#FCD462;}
	.st16{fill:#E2E5E7;}
	.st17{fill:#B0B7BD;}
	.st18{fill:#CAD1D8;}
	.st19{fill:#F15642;}
	.st20{fill:#6344FF;}
	.st21{fill:#30C668;}
	.st22{fill:#F02F60;}
	.st23{fill-rule:evenodd;clip-rule:evenodd;fill:#F02F60;}
	.st24{fill:#0B6AF6;}
	.st25{fill:#888888;}
</style>
<path class="st2" d="M25.61,44.26c0-4.01,0.49-7.21,1.46-9.59c0.97-2.38,2.75-4.72,5.33-7.01c2.61-2.32,4.34-4.2,5.2-5.63
	c0.86-1.46,1.29-3,1.29-4.6c0-4.85-2.24-7.27-6.71-7.27c-2.12,0-3.83,0.66-5.12,1.98c-1.26,1.29-1.92,3.08-1.98,5.38H12.62
	c0.06-5.48,1.82-9.76,5.29-12.86C21.41,1.55,26.17,0,32.19,0c6.08,0,10.8,1.48,14.15,4.43c3.35,2.92,5.03,7.07,5.03,12.43
	c0,2.44-0.54,4.75-1.63,6.92c-1.09,2.15-3,4.54-5.72,7.18l-3.48,3.31c-2.18,2.09-3.43,4.54-3.74,7.35l-0.17,2.62H25.61z
	 M24.37,57.46c0-1.92,0.65-3.5,1.94-4.73c1.32-1.26,3-1.89,5.03-1.89s3.7,0.63,4.99,1.89c1.32,1.23,1.98,2.81,1.98,4.73
	c0,1.89-0.65,3.46-1.94,4.69C35.1,63.38,33.43,64,31.33,64c-2.09,0-3.78-0.62-5.08-1.85C25,60.92,24.37,59.35,24.37,57.46z"/>
</svg>
