<?xml version="1.0" encoding="utf-8"?>
<!-- Generator: Adobe Illustrator 25.2.1, SVG Export Plug-In . SVG Version: 6.00 Build 0)  -->
<svg version="1.1" id="Layer_1" xmlns="http://www.w3.org/2000/svg" xmlns:xlink="http://www.w3.org/1999/xlink" x="0px" y="0px"
	 viewBox="0 0 72 72" style="enable-background:new 0 0 72 72;" xml:space="preserve">
<style type="text/css">
	.st0{fill:#262626;}
	.st1{fill:#FFFFFF;}
	.st2{fill:#302E2E;}
	.st3{fill-rule:evenodd;clip-rule:evenodd;fill:#FFFFFF;}
	.st4{fill-rule:evenodd;clip-rule:evenodd;fill:#C4C4C4;}
	.st5{fill:#C4C4C4;}
	.st6{fill:#E2E2E2;}
	.st7{fill:#A3A3A3;}
	.st8{clip-path:url(#SVGID_2_);}
	.st9{fill:#F6C434;}
	.st10{fill-rule:evenodd;clip-rule:evenodd;fill:#F6C434;}
	.st11{fill:#242729;}
	.st12{fill:#A5A5A5;}
	.st13{fill:#F6C358;}
	.st14{fill:#EBF0F3;}
	.st15{fill:#FCD462;}
	.st16{fill:#E2E5E7;}
	.st17{fill:#B0B7BD;}
	.st18{fill:#CAD1D8;}
	.st19{fill:#F15642;}
	.st20{fill:#6344FF;}
	.st21{fill:#30C668;}
	.st22{fill:#F02F60;}
	.st23{fill-rule:evenodd;clip-rule:evenodd;fill:#F02F60;}
	.st24{fill:#0B6AF6;}
	.st25{fill:#888888;}
</style>
<path class="st1" d="M64.29,51.43v-18H38.57V20.57h7.71V0H25.71v20.57h7.71v12.86H7.71v18H0V72h20.57V51.43h-7.71V38.57h20.57v12.86
	h-7.71V72h20.57V51.43h-7.71V38.57h20.57v12.86h-7.71V72H72V51.43H64.29z M30.86,15.43V5.14h10.29v10.29H30.86z M15.43,56.57v10.29
	H5.14V56.57H15.43z M41.14,56.57v10.29H30.86V56.57H41.14z M66.86,66.86H56.57V56.57h10.29V66.86z"/>
</svg>
