<?xml version="1.0" encoding="utf-8"?>
<!-- Generator: Adobe Illustrator 25.2.1, SVG Export Plug-In . SVG Version: 6.00 Build 0)  -->
<svg version="1.1" id="Layer_1" xmlns="http://www.w3.org/2000/svg" xmlns:xlink="http://www.w3.org/1999/xlink" x="0px" y="0px"
	 viewBox="0 0 72 72" style="enable-background:new 0 0 72 72;" xml:space="preserve">
<style type="text/css">
	.st0{fill:#262626;}
	.st1{fill:#FFFFFF;}
	.st2{fill:#302E2E;}
	.st3{fill-rule:evenodd;clip-rule:evenodd;fill:#FFFFFF;}
	.st4{fill-rule:evenodd;clip-rule:evenodd;fill:#C4C4C4;}
	.st5{fill:#C4C4C4;}
	.st6{fill:#E2E2E2;}
	.st7{fill:#A3A3A3;}
	.st8{clip-path:url(#SVGID_2_);}
	.st9{fill:#F6C434;}
	.st10{fill-rule:evenodd;clip-rule:evenodd;fill:#F6C434;}
	.st11{fill:#242729;}
	.st12{fill:#A5A5A5;}
	.st13{fill:#F6C358;}
	.st14{fill:#EBF0F3;}
	.st15{fill:#FCD462;}
	.st16{fill:#E2E5E7;}
	.st17{fill:#B0B7BD;}
	.st18{fill:#CAD1D8;}
	.st19{fill:#F15642;}
	.st20{fill:#6344FF;}
	.st21{fill:#30C668;}
	.st22{fill:#F02F60;}
	.st23{fill-rule:evenodd;clip-rule:evenodd;fill:#F02F60;}
	.st24{fill:#0B6AF6;}
	.st25{fill:#888888;}
</style>
<path class="st1" d="M68.69,13.8H54.63c0.57-0.42,1.05-0.91,1.43-1.47c1.37-2.02,1.38-4.7,0-8.18c-1.03-2.6-2.73-3.34-3.98-3.51
	c-5.42-0.71-13.1,8.21-16.27,12.23C32.64,8.85,24.93-0.07,19.55,0.65c-1.25,0.16-2.95,0.91-3.98,3.51c-1.37,3.48-1.37,6.15,0,8.18
	c0.38,0.56,0.86,1.05,1.43,1.47H3.3c-1.81,0-3.3,1.48-3.3,3.3v9.24c0,1.81,1.48,3.3,3.3,3.3h2.19v40.31c0,0.79,0.65,1.44,1.44,1.44
	h22.84h12.46h22.84c0.79,0,1.44-0.65,1.44-1.44V29.64h2.19c1.81,0,3.3-1.48,3.3-3.3V17.1C71.98,15.27,70.51,13.8,68.69,13.8z
	 M51.41,3.48c0.1,0,0.2,0.01,0.29,0.02c0.29,0.03,1.06,0.14,1.68,1.71c0.99,2.52,1.1,4.33,0.29,5.5c-1.43,2.09-5.9,2.77-11.45,2.99
	h-3.37C42.87,8.81,48.42,3.48,51.41,3.48z M18.24,5.21c0.62-1.57,1.39-1.67,1.68-1.71c0.1-0.02,0.21-0.02,0.31-0.02
	c3.11,0,8.67,5.51,12.53,10.22h-3.01c-0.02,0-0.03,0.01-0.05,0.01c-5.69-0.21-10.31-0.87-11.76-3C17.16,9.54,17.25,7.73,18.24,5.21z
	 M2.88,26.34V17.1c0-0.22,0.19-0.41,0.41-0.41h25.03v10.08H6.93H3.3C3.07,26.75,2.88,26.56,2.88,26.34z M8.36,29.64h19.96V68.5H8.36
	V29.64z M31.2,68.5V16.68h9.58V68.5H31.2z M63.62,68.5H43.67V29.64h19.95V68.5z M69.11,26.34c0,0.22-0.19,0.41-0.41,0.41h-3.63
	h-21.4V16.68h25.03c0.22,0,0.41,0.19,0.41,0.41V26.34z"/>
</svg>
