<?xml version="1.0" encoding="utf-8"?>
<!-- Generator: Adobe Illustrator 25.2.1, SVG Export Plug-In . SVG Version: 6.00 Build 0)  -->
<svg version="1.1" id="Layer_1" xmlns="http://www.w3.org/2000/svg" xmlns:xlink="http://www.w3.org/1999/xlink" x="0px" y="0px"
	 viewBox="0 0 72 72" style="enable-background:new 0 0 72 72;" xml:space="preserve">
<style type="text/css">
	.st0{fill:#262626;}
	.st1{fill:#FFFFFF;}
	.st2{fill:#302E2E;}
	.st3{fill-rule:evenodd;clip-rule:evenodd;fill:#FFFFFF;}
	.st4{fill-rule:evenodd;clip-rule:evenodd;fill:#C4C4C4;}
	.st5{fill:#C4C4C4;}
	.st6{fill:#E2E2E2;}
	.st7{fill:#A3A3A3;}
	.st8{clip-path:url(#SVGID_2_);}
	.st9{fill:#F6C434;}
	.st10{fill-rule:evenodd;clip-rule:evenodd;fill:#F6C434;}
	.st11{fill:#242729;}
	.st12{fill:#A5A5A5;}
	.st13{fill:#F6C358;}
	.st14{fill:#EBF0F3;}
	.st15{fill:#FCD462;}
	.st16{fill:#E2E5E7;}
	.st17{fill:#B0B7BD;}
	.st18{fill:#CAD1D8;}
	.st19{fill:#F15642;}
	.st20{fill:#6344FF;}
	.st21{fill:#30C668;}
	.st22{fill:#F02F60;}
	.st23{fill-rule:evenodd;clip-rule:evenodd;fill:#F02F60;}
	.st24{fill:#0B6AF6;}
	.st25{fill:#888888;}
</style>
<g>
	<path class="st1" d="M65.81,65.16H6.19C2.78,65.16,0,62.38,0,58.96V13.04c0-3.41,2.78-6.19,6.19-6.19h21.29
		c2.47,0,4.57,1.36,5.62,3.64l2.68,5.85c0.65,1.37,1.89,2.17,3.42,2.17h26.6c3.41,0,6.19,2.78,6.19,6.19v34.27
		C72,62.38,69.22,65.16,65.81,65.16z M6.19,9.31c-2.03,0-3.73,1.71-3.73,3.73v45.92c0,2.06,1.67,3.73,3.73,3.73h59.61
		c2.06,0,3.73-1.67,3.73-3.73V24.69c0-2.06-1.67-3.73-3.73-3.73H39.2c-2.48,0-4.59-1.34-5.65-3.59l-2.68-5.86
		c-0.64-1.38-1.9-2.2-3.38-2.2H6.19z"/>
</g>
</svg>
