<?xml version="1.0" encoding="utf-8"?>
<!-- Generator: Adobe Illustrator 25.2.1, SVG Export Plug-In . SVG Version: 6.00 Build 0)  -->
<svg version="1.1" id="Layer_1" xmlns="http://www.w3.org/2000/svg" xmlns:xlink="http://www.w3.org/1999/xlink" x="0px" y="0px"
	 viewBox="0 0 278.69 380" style="enable-background:new 0 0 278.69 380;" xml:space="preserve">
<style type="text/css">
	.st0{fill:#262626;}
	.st1{fill:#FFFFFF;}
	.st2{fill:#302E2E;}
	.st3{fill-rule:evenodd;clip-rule:evenodd;fill:#FFFFFF;}
	.st4{fill-rule:evenodd;clip-rule:evenodd;fill:#C4C4C4;}
	.st5{fill:#C4C4C4;}
	.st6{fill:#E2E2E2;}
	.st7{fill:#A3A3A3;}
	.st8{clip-path:url(#SVGID_2_);}
	.st9{fill:#F6C434;}
	.st10{fill-rule:evenodd;clip-rule:evenodd;fill:#F6C434;}
	.st11{fill:#242729;}
	.st12{fill:#A5A5A5;}
	.st13{fill:#F6C358;}
	.st14{fill:#EBF0F3;}
	.st15{fill:#FCD462;}
	.st16{fill:#E2E5E7;}
	.st17{fill:#B0B7BD;}
	.st18{fill:#CAD1D8;}
	.st19{fill:#F15642;}
	.st20{fill:#6344FF;}
	.st21{fill:#30C668;}
	.st22{fill:#F02F60;}
	.st23{fill-rule:evenodd;clip-rule:evenodd;fill:#F02F60;}
	.st24{fill:#0B6AF6;}
	.st25{fill:#888888;}
</style>
<g>
	<path class="st21" d="M277.83,84.45v-1.14c-0.61-1.3-1.42-2.51-2.39-3.57L199.43,3.77c-1.05-0.97-2.23-1.78-3.57-2.39
		c-0.36-0.04-0.77-0.04-1.14,0c-1.26-0.73-2.64-1.18-4.05-1.38H12.65C5.68-0.04,0,5.64,0,12.61v354.74C0,374.37,5.68,380,12.65,380
		h253.39c7.01,0,12.65-5.68,12.65-12.65V88.67c0,0,0,0,0-0.77C278.56,86.72,278.24,85.58,277.83,84.45z M235.51,75.98h-32.8v-32.8
		L235.51,75.98z M253.39,354.7H25.34V25.3h152.03v63.33c0,7.01,5.68,12.65,12.65,12.65h63.37V354.7z"/>
	<path class="st21" d="M50.68,190.02c0,48.97,39.69,88.71,88.71,88.71s88.71-39.69,88.71-88.71s-39.73-88.71-88.71-88.71
		S50.68,141.01,50.68,190.02z M202.71,190.02c0,34.99-28.38,63.33-63.33,63.33s-63.33-28.38-63.33-63.33s28.38-63.33,63.33-63.33
		S202.71,155.03,202.71,190.02z"/>
	<path class="st21" d="M110.84,181.51c-4.7-5.23-12.73-5.72-18-1.01c-5.27,4.7-5.72,12.73-1.01,18l25.34,28.38
		c2.43,2.64,5.84,4.18,9.41,4.18c3.49,0.04,6.85-1.42,9.24-3.93l50.68-53.72c4.82-5.11,4.58-13.18-0.49-18
		c-5.11-4.82-13.18-4.58-18,0.49l-41.31,43.74L110.84,181.51z"/>
</g>
</svg>
