<?xml version="1.0" encoding="utf-8"?>
<!-- Generator: Adobe Illustrator 25.2.1, SVG Export Plug-In . SVG Version: 6.00 Build 0)  -->
<svg version="1.1" id="Layer_1" xmlns="http://www.w3.org/2000/svg" xmlns:xlink="http://www.w3.org/1999/xlink" x="0px" y="0px"
	 viewBox="0 0 160 160" style="enable-background:new 0 0 160 160;" xml:space="preserve">
<style type="text/css">
	.st0{fill:#262626;}
	.st1{fill:#FFFFFF;}
	.st2{fill:#302E2E;}
	.st3{fill-rule:evenodd;clip-rule:evenodd;fill:#FFFFFF;}
	.st4{fill-rule:evenodd;clip-rule:evenodd;fill:#C4C4C4;}
	.st5{fill:#C4C4C4;}
	.st6{fill:#E2E2E2;}
	.st7{fill:#A3A3A3;}
	.st8{clip-path:url(#SVGID_2_);}
	.st9{fill:#F6C434;}
	.st10{fill-rule:evenodd;clip-rule:evenodd;fill:#F6C434;}
	.st11{fill:#242729;}
	.st12{fill:#A5A5A5;}
	.st13{fill:#F6C358;}
	.st14{fill:#EBF0F3;}
	.st15{fill:#FCD462;}
	.st16{fill:#E2E5E7;}
	.st17{fill:#B0B7BD;}
	.st18{fill:#CAD1D8;}
	.st19{fill:#F15642;}
	.st20{fill:#6344FF;}
	.st21{fill:#30C668;}
	.st22{fill:#F02F60;}
	.st23{fill-rule:evenodd;clip-rule:evenodd;fill:#F02F60;}
	.st24{fill:#0B6AF6;}
	.st25{fill:#888888;}
</style>
<g>
	<path class="st13" d="M10.09,17.41h38.27c2.51,0,4.82,1.34,6.07,3.5l6.3,8.58c1.25,2.17,3.57,3.5,6.07,3.5H160v97.95
		c0,5.14-4.18,9.32-9.34,9.32H9.34c-5.16,0-9.34-4.17-9.34-9.31V43.86c0-7.2,1.12-14.36,3.31-21.22
		C4.11,19.56,6.9,17.41,10.09,17.41z"/>
	<path class="st14" d="M137.55,31.39H14.56V83.2h122.99V31.39z"/>
	<path class="st15" d="M153,22.07h-38.56c-2.74,0-5.23,1.59-6.37,4.08l-6.6,14.4c-1.14,2.49-3.63,4.08-6.37,4.08H0v88.64
		c0,5.14,4.18,9.32,9.34,9.32h141.32c5.16,0,9.34-4.17,9.34-9.32V29.06C160,25.2,156.86,22.07,153,22.07z"/>
</g>
</svg>
