<?xml version="1.0" encoding="utf-8"?>
<!-- Generator: Adobe Illustrator 25.2.1, SVG Export Plug-In . SVG Version: 6.00 Build 0)  -->
<svg version="1.1" id="Layer_1" xmlns="http://www.w3.org/2000/svg" xmlns:xlink="http://www.w3.org/1999/xlink" x="0px" y="0px"
	 viewBox="0 0 80 80" style="enable-background:new 0 0 80 80;" xml:space="preserve">
<style type="text/css">
	.st0{fill:#262626;}
	.st1{fill:#FFFFFF;}
	.st2{fill:#302E2E;}
	.st3{fill-rule:evenodd;clip-rule:evenodd;fill:#FFFFFF;}
	.st4{fill-rule:evenodd;clip-rule:evenodd;fill:#C4C4C4;}
	.st5{fill:#C4C4C4;}
	.st6{fill:#E2E2E2;}
	.st7{fill:#A3A3A3;}
	.st8{clip-path:url(#SVGID_2_);}
	.st9{fill:#F6C434;}
	.st10{fill-rule:evenodd;clip-rule:evenodd;fill:#F6C434;}
	.st11{fill:#242729;}
	.st12{fill:#A5A5A5;}
	.st13{fill:#F6C358;}
	.st14{fill:#EBF0F3;}
	.st15{fill:#FCD462;}
	.st16{fill:#E2E5E7;}
	.st17{fill:#B0B7BD;}
	.st18{fill:#CAD1D8;}
	.st19{fill:#F15642;}
	.st20{fill:#6344FF;}
	.st21{fill:#30C668;}
	.st22{fill:#F02F60;}
	.st23{fill-rule:evenodd;clip-rule:evenodd;fill:#F02F60;}
	.st24{fill:#0B6AF6;}
	.st25{fill:#888888;}
</style>
<path class="st20" d="M78.68,28.31l-9.15-15.22c1.16-0.4,1.79-1.65,1.43-2.81C70.6,9.2,69.44,8.53,68.32,8.8L10.28,22.19
	c-1.21,0.27-1.96,1.47-1.7,2.68c0.22,0.85,0.89,1.52,1.79,1.65L1.31,41.7c-1.38,2.28-1.7,5.05-0.8,7.55
	c2.63,6.92,10.36,10.4,17.28,7.77c3.57-1.34,6.38-4.2,7.77-7.77c0.89-2.5,0.58-5.27-0.8-7.55l-9.6-16.03l22.46-5.18v46.3H24.21
	c-1.25,0-2.23,0.98-2.23,2.23c0,1.25,0.98,2.23,2.23,2.23h31.25c1.25,0,2.23-0.98,2.23-2.23c0-1.25-0.98-2.23-2.23-2.23H42.07V19.47
	l21.43-4.96l-8.26,13.8c-1.38,2.28-1.7,5.05-0.8,7.55c2.63,6.92,10.36,10.4,17.28,7.77c3.57-1.34,6.38-4.2,7.77-7.77
	C80.38,33.35,80.11,30.54,78.68,28.31z M19.92,45.59H6.17c-0.63,0-1.12-0.49-1.12-1.12c0-0.22,0.04-0.4,0.18-0.58l7.86-13.08
	l7.86,13.08c0.31,0.54,0.13,1.21-0.4,1.52C20.33,45.54,20.15,45.59,19.92,45.59z M73.86,32.19h-13.8c-0.62,0-1.12-0.49-1.12-1.12
	c0-0.22,0.04-0.4,0.18-0.58l7.86-13.08l7.86,13.08c0.31,0.54,0.13,1.21-0.4,1.52C74.26,32.15,74.08,32.19,73.86,32.19z"/>
</svg>
