<?xml version="1.0" encoding="utf-8"?>
<!-- Generator: Adobe Illustrator 25.2.1, SVG Export Plug-In . SVG Version: 6.00 Build 0)  -->
<svg version="1.1" id="Layer_1" xmlns="http://www.w3.org/2000/svg" xmlns:xlink="http://www.w3.org/1999/xlink" x="0px" y="0px"
	 viewBox="0 0 80 80" style="enable-background:new 0 0 80 80;" xml:space="preserve">
<style type="text/css">
	.st0{fill:#262626;}
	.st1{fill:#FFFFFF;}
	.st2{fill:#302E2E;}
	.st3{fill-rule:evenodd;clip-rule:evenodd;fill:#FFFFFF;}
	.st4{fill-rule:evenodd;clip-rule:evenodd;fill:#C4C4C4;}
	.st5{fill:#C4C4C4;}
	.st6{fill:#E2E2E2;}
	.st7{fill:#A3A3A3;}
	.st8{clip-path:url(#SVGID_2_);}
	.st9{fill:#F6C434;}
	.st10{fill-rule:evenodd;clip-rule:evenodd;fill:#F6C434;}
	.st11{fill:#242729;}
	.st12{fill:#A5A5A5;}
	.st13{fill:#F6C358;}
	.st14{fill:#EBF0F3;}
	.st15{fill:#FCD462;}
	.st16{fill:#E2E5E7;}
	.st17{fill:#B0B7BD;}
	.st18{fill:#CAD1D8;}
	.st19{fill:#F15642;}
	.st20{fill:#6344FF;}
	.st21{fill:#30C668;}
	.st22{fill:#F02F60;}
	.st23{fill-rule:evenodd;clip-rule:evenodd;fill:#F02F60;}
	.st24{fill:#0B6AF6;}
	.st25{fill:#888888;}
</style>
<path class="st9" d="M24.34,29.89c5.01,0,9.49,2.33,12.35,6.08c2.51-2.86,5.73-5.01,9.31-6.26c-3.4-2.86-5.73-7.16-5.73-11.99
	c0-8.41,6.98-15.21,15.39-15.21s15.21,6.8,15.21,15.21c0,4.83-2.15,9.13-5.55,11.99C73.74,32.57,80,40.81,80,50.29h-4.47
	c0-9.49-7.7-17.18-17.18-17.18h-5.37c-5.73,0-10.92,2.86-13.96,7.34c0.36,1.43,0.72,3.04,0.72,4.65c0,4.83-2.33,9.13-5.73,11.99
	c8.59,2.86,14.68,10.92,14.68,20.4h-4.47c0-9.31-7.7-17-17-17h-5.55c-9.49,0-17.18,7.7-17.18,17H0c0-9.49,6.26-17.54,14.85-20.4
	c-3.58-2.86-5.73-7.16-5.73-11.99C9.13,36.69,15.93,29.89,24.34,29.89z M55.66,6.98c-5.91,0-10.74,4.83-10.74,10.74
	c0,6.08,4.83,10.92,10.74,10.92S66.4,23.8,66.4,17.72C66.4,11.81,61.57,6.98,55.66,6.98z M24.34,34.36
	c-5.91,0-10.74,4.83-10.74,10.74c0,5.91,4.83,10.74,10.74,10.74s10.74-4.83,10.74-10.74C35.08,39.19,30.25,34.36,24.34,34.36z"/>
</svg>
