<?xml version="1.0" encoding="utf-8"?>
<!-- Generator: Adobe Illustrator 25.2.1, SVG Export Plug-In . SVG Version: 6.00 Build 0)  -->
<svg version="1.1" id="Layer_1" xmlns="http://www.w3.org/2000/svg" xmlns:xlink="http://www.w3.org/1999/xlink" x="0px" y="0px"
	 viewBox="0 0 64 64" style="enable-background:new 0 0 64 64;" xml:space="preserve">
<style type="text/css">
	.st0{fill:#262626;}
	.st1{fill:#FFFFFF;}
	.st2{fill:#302E2E;}
	.st3{fill-rule:evenodd;clip-rule:evenodd;fill:#FFFFFF;}
	.st4{fill-rule:evenodd;clip-rule:evenodd;fill:#C4C4C4;}
	.st5{fill:#C4C4C4;}
	.st6{fill:#E2E2E2;}
	.st7{fill:#A3A3A3;}
	.st8{clip-path:url(#SVGID_2_);}
	.st9{fill:#F6C434;}
	.st10{fill-rule:evenodd;clip-rule:evenodd;fill:#F6C434;}
	.st11{fill:#242729;}
	.st12{fill:#A5A5A5;}
	.st13{fill:#F6C358;}
	.st14{fill:#EBF0F3;}
	.st15{fill:#FCD462;}
	.st16{fill:#E2E5E7;}
	.st17{fill:#B0B7BD;}
	.st18{fill:#CAD1D8;}
	.st19{fill:#F15642;}
	.st20{fill:#6344FF;}
	.st21{fill:#30C668;}
	.st22{fill:#F02F60;}
	.st23{fill-rule:evenodd;clip-rule:evenodd;fill:#F02F60;}
	.st24{fill:#0B6AF6;}
	.st25{fill:#888888;}
</style>
<g>
	<path class="st12" d="M12.83,25.02h26.18c0.64,0,1.16-0.52,1.16-1.16c0-0.64-0.52-1.16-1.16-1.16H12.83
		c-0.64,0-1.16,0.52-1.16,1.16C11.67,24.5,12.19,25.02,12.83,25.02z M12.83,18.47h26.18c0.64,0,1.16-0.52,1.16-1.16
		c0-0.64-0.52-1.16-1.16-1.16H12.83c-0.64,0-1.16,0.52-1.16,1.16C11.67,17.94,12.19,18.47,12.83,18.47z M12.83,30.89h21.53
		c0.64,0,1.16-0.52,1.16-1.16s-0.52-1.16-1.16-1.16H12.83c-0.64,0-1.16,0.52-1.16,1.16C11.67,30.36,12.19,30.89,12.83,30.89z
		 M26.6,34.43H12.83c-0.64,0-1.16,0.52-1.16,1.16s0.52,1.16,1.16,1.16H26.6c0.64,0,1.16-0.52,1.16-1.16
		C27.76,34.96,27.24,34.43,26.6,34.43z M22.76,40.3h-9.93c-0.64,0-1.16,0.52-1.16,1.16s0.52,1.16,1.16,1.16h9.93
		c0.64,0,1.16-0.52,1.16-1.16S23.4,40.3,22.76,40.3z M48.85,44.56h-0.78v-2.77c0-3.17-2.58-5.75-5.75-5.75
		c-3.17,0-5.75,2.58-5.75,5.75v2.77h-0.78c-0.64,0-1.16,0.52-1.16,1.16v11.03c0,0.64,0.52,1.16,1.16,1.16h13.06
		c0.64,0,1.16-0.52,1.16-1.16V45.72C50.01,45.08,49.49,44.56,48.85,44.56z M38.9,41.79c0-1.89,1.54-3.42,3.42-3.42
		c1.89,0,3.42,1.54,3.42,3.42v2.77h-6.83L38.9,41.79L38.9,41.79z M47.69,55.59H36.96v-8.7h10.73V55.59z M46.42,32.05V12.19
		c0-0.31-0.12-0.6-0.34-0.82L35.16,0.34C34.94,0.12,34.64,0,34.33,0H6.59C5.95,0,5.43,0.52,5.43,1.16V54.5
		c0,0.64,0.52,1.16,1.16,1.16h21.56C30.94,60.63,36.24,64,42.33,64c8.96,0,16.24-7.28,16.24-16.24
		C58.56,40.22,53.4,33.88,46.42,32.05z M35.49,3.99l6.97,7.03h-6.97V3.99z M27.09,53.34H7.76V2.33h25.41v9.86
		c0,0.64,0.52,1.16,1.16,1.16h9.76v18.26c-0.58-0.06-1.17-0.1-1.77-0.1c-8.95,0-16.24,7.28-16.24,16.24
		C26.08,49.72,26.45,51.6,27.09,53.34z M42.33,61.67c-7.67,0-13.92-6.24-13.92-13.92s6.24-13.92,13.92-13.92
		c7.67,0,13.92,6.24,13.92,13.92C56.23,55.43,50,61.67,42.33,61.67z"/>
</g>
</svg>
