<?xml version="1.0" encoding="utf-8"?>
<!-- Generator: Adobe Illustrator 25.2.1, SVG Export Plug-In . SVG Version: 6.00 Build 0)  -->
<svg version="1.1" id="Layer_1" xmlns="http://www.w3.org/2000/svg" xmlns:xlink="http://www.w3.org/1999/xlink" x="0px" y="0px"
	 viewBox="0 0 160 160" style="enable-background:new 0 0 160 160;" xml:space="preserve">
<style type="text/css">
	.st0{fill:#262626;}
	.st1{fill:#FFFFFF;}
	.st2{fill:#302E2E;}
	.st3{fill-rule:evenodd;clip-rule:evenodd;fill:#FFFFFF;}
	.st4{fill-rule:evenodd;clip-rule:evenodd;fill:#C4C4C4;}
	.st5{fill:#C4C4C4;}
	.st6{fill:#E2E2E2;}
	.st7{fill:#A3A3A3;}
	.st8{clip-path:url(#SVGID_2_);}
	.st9{fill:#F6C434;}
	.st10{fill-rule:evenodd;clip-rule:evenodd;fill:#F6C434;}
	.st11{fill:#242729;}
	.st12{fill:#A5A5A5;}
	.st13{fill:#F6C358;}
	.st14{fill:#EBF0F3;}
	.st15{fill:#FCD462;}
	.st16{fill:#E2E5E7;}
	.st17{fill:#B0B7BD;}
	.st18{fill:#CAD1D8;}
	.st19{fill:#F15642;}
	.st20{fill:#6344FF;}
	.st21{fill:#30C668;}
	.st22{fill:#F02F60;}
	.st23{fill-rule:evenodd;clip-rule:evenodd;fill:#F02F60;}
	.st24{fill:#0B6AF6;}
	.st25{fill:#888888;}
</style>
<path class="st6" d="M143.96,160H16.04C7.2,160,0,152.8,0,143.96V16.04C0,7.2,7.2,0,16.04,0h127.92C152.8,0,160,7.2,160,16.04
	v127.92C160,152.8,152.8,160,143.96,160z"/>
<path class="st7" d="M144.6,43.84c0,0.88-1.2,1.64-2.68,1.64H17.56c-1.48,0-2.68-0.72-2.68-1.64c0-0.88,1.2-1.64,2.68-1.64h124.4
	C143.4,42.2,144.6,42.96,144.6,43.84z"/>
<path class="st7" d="M144.6,54.08c0,0.88-1.2,1.64-2.68,1.64H17.56c-1.48,0-2.68-0.72-2.68-1.64c0-0.88,1.2-1.64,2.68-1.64h124.4
	C143.4,52.44,144.6,53.16,144.6,54.08z"/>
<path class="st7" d="M144.6,64.28c0,0.88-1.2,1.64-2.68,1.64H17.56c-1.48,0-2.68-0.72-2.68-1.64c0-0.88,1.2-1.64,2.68-1.64h124.4
	C143.4,62.68,144.6,63.4,144.6,64.28z"/>
<path class="st7" d="M144.6,74.52c0,0.88-1.2,1.64-2.68,1.64H17.56c-1.48,0-2.68-0.72-2.68-1.64c0-0.88,1.2-1.64,2.68-1.64h124.4
	C143.4,72.88,144.6,73.64,144.6,74.52z"/>
<path class="st7" d="M144.6,94.56c0,0.88-0.72,1.64-1.64,1.64H16.2c-0.88,0-1.64-0.72-1.64-1.64c0-0.88,0.72-1.64,1.64-1.64h126.76
	C143.88,92.92,144.6,93.64,144.6,94.56z"/>
<path class="st7" d="M144.6,104.8c0,0.88-0.72,1.64-1.64,1.64H16.2c-0.88,0-1.64-0.72-1.64-1.64c0-0.88,0.72-1.64,1.64-1.64h126.76
	C143.88,103.16,144.6,103.88,144.6,104.8z"/>
<path class="st7" d="M144.6,115c0,0.88-0.72,1.64-1.64,1.64H16.2c-0.88,0-1.64-0.72-1.64-1.64c0-0.88,0.72-1.64,1.64-1.64h126.76
	C143.88,113.4,144.6,114.12,144.6,115z"/>
<path class="st7" d="M144.6,125.24c0,0.92-0.72,1.64-1.64,1.64H16.2c-0.88,0-1.64-0.72-1.64-1.64c0-0.88,0.72-1.64,1.64-1.64h126.76
	C143.88,123.6,144.6,124.32,144.6,125.24z"/>
<path class="st7" d="M119.68,20.64c0,0.88-0.72,1.64-1.64,1.64H41.96c-0.92,0-1.64-0.72-1.64-1.64c0-0.88,0.72-1.64,1.64-1.64h76.08
	C118.92,19,119.68,19.72,119.68,20.64z"/>
</svg>
