<?xml version="1.0" encoding="utf-8"?>
<!-- Generator: Adobe Illustrator 25.2.1, SVG Export Plug-In . SVG Version: 6.00 Build 0)  -->
<svg version="1.1" id="Layer_1" xmlns="http://www.w3.org/2000/svg" xmlns:xlink="http://www.w3.org/1999/xlink" x="0px" y="0px"
	 viewBox="0 0 158.95 160" style="enable-background:new 0 0 158.95 160;" xml:space="preserve">
<style type="text/css">
	.st0{fill:#262626;}
	.st1{fill:#FFFFFF;}
	.st2{fill:#302E2E;}
	.st3{fill-rule:evenodd;clip-rule:evenodd;fill:#FFFFFF;}
	.st4{fill-rule:evenodd;clip-rule:evenodd;fill:#C4C4C4;}
	.st5{fill:#C4C4C4;}
	.st6{fill:#E2E2E2;}
	.st7{fill:#A3A3A3;}
	.st8{clip-path:url(#SVGID_2_);}
	.st9{fill:#F6C434;}
	.st10{fill-rule:evenodd;clip-rule:evenodd;fill:#F6C434;}
	.st11{fill:#242729;}
	.st12{fill:#A5A5A5;}
	.st13{fill:#F6C358;}
	.st14{fill:#EBF0F3;}
	.st15{fill:#FCD462;}
	.st16{fill:#E2E5E7;}
	.st17{fill:#B0B7BD;}
	.st18{fill:#CAD1D8;}
	.st19{fill:#F15642;}
	.st20{fill:#6344FF;}
	.st21{fill:#30C668;}
	.st22{fill:#F02F60;}
	.st23{fill-rule:evenodd;clip-rule:evenodd;fill:#F02F60;}
	.st24{fill:#0B6AF6;}
	.st25{fill:#888888;}
</style>
<g>
	<defs>
		<rect id="SVGID_1_" width="158.95" height="160"/>
	</defs>
	<clipPath id="SVGID_2_">
		<use xlink:href="#SVGID_1_"  style="overflow:visible;"/>
	</clipPath>
	<g class="st8">
		<path class="st9" d="M134.57,149.57H14.99C6.73,149.57,0,142.84,0,134.57V14.99C0,6.73,6.73,0,14.99,0h119.58
			c8.26,0,14.99,6.73,14.99,14.99v119.58C149.57,142.84,142.84,149.57,134.57,149.57z"/>
		<path class="st1" d="M135.17,40.98c0,0.82-1.12,1.53-2.51,1.53H16.41c-1.38,0-2.51-0.67-2.51-1.53c0-0.82,1.12-1.53,2.51-1.53
			H132.7C134.05,39.45,135.17,40.16,135.17,40.98z"/>
		<path class="st1" d="M135.17,50.55c0,0.82-1.12,1.53-2.51,1.53H16.41c-1.38,0-2.51-0.67-2.51-1.53c0-0.82,1.12-1.53,2.51-1.53
			H132.7C134.05,49.02,135.17,49.69,135.17,50.55z"/>
		<path class="st1" d="M135.17,60.09c0,0.82-1.12,1.53-2.51,1.53H16.41c-1.38,0-2.51-0.67-2.51-1.53c0-0.82,1.12-1.53,2.51-1.53
			H132.7C134.05,58.59,135.17,59.27,135.17,60.09z"/>
		<path class="st1" d="M135.17,69.66c0,0.82-1.12,1.53-2.51,1.53H16.41c-1.38,0-2.51-0.67-2.51-1.53c0-0.82,1.12-1.53,2.51-1.53
			H132.7C134.05,68.13,135.17,68.84,135.17,69.66z"/>
		<path class="st1" d="M135.17,88.39c0,0.82-0.67,1.53-1.53,1.53H15.14c-0.82,0-1.53-0.67-1.53-1.53c0-0.82,0.67-1.53,1.53-1.53
			h118.5C134.5,86.86,135.17,87.53,135.17,88.39z"/>
		<path class="st1" d="M135.17,97.97c0,0.82-0.67,1.53-1.53,1.53H15.14c-0.82,0-1.53-0.67-1.53-1.53c0-0.82,0.67-1.53,1.53-1.53
			h118.5C134.5,96.43,135.17,97.11,135.17,97.97z"/>
		<path class="st1" d="M135.17,107.5c0,0.82-0.67,1.53-1.53,1.53H15.14c-0.82,0-1.53-0.67-1.53-1.53c0-0.82,0.67-1.53,1.53-1.53
			h118.5C134.5,106.01,135.17,106.68,135.17,107.5z"/>
		<path class="st1" d="M135.17,117.07c0,0.86-0.67,1.53-1.53,1.53H15.14c-0.82,0-1.53-0.67-1.53-1.53c0-0.82,0.67-1.53,1.53-1.53
			h118.5C134.5,115.54,135.17,116.21,135.17,117.07z"/>
		<path class="st1" d="M111.88,19.29c0,0.82-0.67,1.53-1.53,1.53H39.22c-0.86,0-1.53-0.67-1.53-1.53c0-0.82,0.67-1.53,1.53-1.53
			h71.12C111.17,17.76,111.88,18.43,111.88,19.29z"/>
		<path class="st10" d="M135.47,132.1v-8.82l-4.41,2.99l-4.41-2.99l-4.41,2.99l-4.41-2.99v8.82H135.47z"/>
		<path class="st10" d="M131.06,126.27l4.41-2.99v8.82h-17.69v-8.82l4.41,2.99l4.41-2.99L131.06,126.27z M143.66,127.69
			c0-9.42-7.63-17.05-17.05-17.05s-17.05,7.63-17.05,17.05s7.63,17.05,17.05,17.05S143.66,137.11,143.66,127.69z"/>
		<path class="st10" d="M126.65,110.64c9.42,0,17.05,7.63,17.05,17.05s-7.63,17.05-17.05,17.05s-17.05-7.63-17.05-17.05
			S117.22,110.64,126.65,110.64z M149.34,127.69c0-12.56-10.17-22.73-22.73-22.73c-12.56,0-22.73,10.17-22.73,22.73
			c0,12.56,10.17,22.73,22.73,22.73C139.17,150.43,149.34,140.25,149.34,127.69z"/>
		<path class="st10" d="M126.65,104.96c12.56,0,22.73,10.17,22.73,22.73c0,12.56-10.17,22.73-22.73,22.73s-22.73-10.17-22.73-22.73
			C103.91,115.13,114.08,104.96,126.65,104.96z M134.2,99.61l-2.88-1.68c-6.09-3.55-11.18,1.38-12.23,1.68
			c-1.12,0.3-7.81-1.53-11.33,4.64l-1.68,2.92c-0.75,0.75-7.55,2.69-7.55,9.65v3.37l-1.68,2.84c-3.55,6.09,1.38,11.18,1.68,12.23
			c0.3,1.12-1.53,7.81,4.64,11.33l2.92,1.68c0.75,0.75,2.69,7.55,9.65,7.55h3.37l2.88,1.68c6.09,3.55,11.18-1.38,12.23-1.68
			c1.12-0.3,7.81,1.53,11.33-4.64l1.68-2.92c0.75-0.75,7.55-2.69,7.55-9.65v-3.37l1.68-2.88c3.55-6.09-1.38-11.18-1.68-12.23
			c-0.3-1.12,1.53-7.81-4.64-11.33l-2.92-1.68c-0.75-0.75-2.69-7.55-9.65-7.55L134.2,99.61z"/>
		<path class="st11" d="M156.34,120.44c-0.15-0.22-0.3-0.49-0.37-0.64c0-0.15,0-0.52,0.04-0.79c0.11-2.39,0.41-8.08-5.23-11.29
			l-2.69-1.53c-0.07-0.15-0.22-0.37-0.3-0.6c-1.12-2.17-3.78-7.25-10.21-7.25h-2.99l-2.62-1.5c-5.65-3.29-10.47-0.19-12.56,1.16
			c-0.22,0.15-0.49,0.3-0.64,0.37c-0.15,0-0.52,0-0.79-0.04c-2.39-0.11-8.08-0.41-11.29,5.23l-1.53,2.69
			c-0.15,0.07-0.37,0.22-0.6,0.3c-2.17,1.12-7.25,3.78-7.25,10.21v2.99l-1.5,2.58c-3.29,5.65-0.19,10.47,1.16,12.56
			c0.15,0.22,0.3,0.49,0.37,0.64c0,0.15,0,0.52-0.04,0.79c-0.11,2.39-0.41,8.04,5.23,11.29l2.69,1.53c0.07,0.15,0.22,0.37,0.3,0.6
			c1.12,2.17,3.78,7.25,10.21,7.25h2.99l2.58,1.5c1.83,1.05,3.55,1.46,5.16,1.46c3.33,0,5.98-1.72,7.4-2.62
			c0.22-0.15,0.49-0.3,0.64-0.37c0.15,0,0.52,0,0.79,0.04c2.43,0.11,8.08,0.41,11.29-5.23l1.53-2.69c0.15-0.07,0.37-0.22,0.6-0.3
			c2.17-1.12,7.25-3.78,7.25-10.21v-2.99l1.5-2.58C160.79,127.36,157.68,122.5,156.34,120.44z M155.33,131.73l-1.68,2.88
			c-0.11,0.19-0.19,0.41-0.19,0.64v3.33c0,4.9-3.85,6.92-5.91,7.96c-0.64,0.34-0.97,0.52-1.27,0.79c-0.07,0.07-0.15,0.15-0.19,0.26
			l-1.68,2.92c-2.47,4.3-6.69,4.08-8.97,3.96c-0.71-0.04-1.16-0.07-1.57,0.04c-0.37,0.11-0.75,0.34-1.35,0.71
			c-1.98,1.27-5.65,3.59-9.95,1.08l-2.88-1.68c-0.19-0.11-0.41-0.19-0.64-0.19h-3.33c-4.9,0-6.92-3.85-7.96-5.91
			c-0.34-0.64-0.52-0.97-0.79-1.27c-0.07-0.07-0.15-0.15-0.26-0.19l-2.92-1.68c-4.3-2.47-4.08-6.69-3.96-8.97
			c0.04-0.71,0.07-1.16-0.04-1.57c-0.11-0.37-0.34-0.75-0.71-1.31c-1.27-1.98-3.59-5.65-1.08-9.95l1.68-2.88
			c0.11-0.19,0.19-0.41,0.19-0.64v-3.33c0-4.9,3.85-6.92,5.91-7.96c0.64-0.34,0.97-0.52,1.27-0.79c0.07-0.07,0.15-0.15,0.19-0.26
			l1.68-2.92c2.47-4.3,6.69-4.08,8.97-3.96c0.71,0.04,1.16,0.07,1.57-0.04c0.37-0.11,0.75-0.34,1.35-0.71
			c1.98-1.27,5.65-3.59,9.91-1.08l2.88,1.68c0.19,0.11,0.41,0.19,0.64,0.19h3.33c4.9,0,6.92,3.85,7.96,5.91
			c0.34,0.64,0.52,0.97,0.79,1.27c0.07,0.07,0.15,0.15,0.26,0.19l2.92,1.68c4.3,2.47,4.08,6.69,3.96,8.97
			c-0.04,0.71-0.07,1.16,0.04,1.57c0.11,0.37,0.34,0.75,0.71,1.35C155.48,123.77,157.83,127.43,155.33,131.73z"/>
		<path class="st11" d="M126.65,103.72c-4.3,0-8.53,1.16-12.23,3.37c-0.6,0.37-0.79,1.12-0.45,1.72c0.37,0.6,1.12,0.79,1.72,0.45
			c3.29-1.94,7.07-2.99,10.92-2.99c11.82,0,21.46,9.61,21.46,21.46c0,11.85-9.61,21.46-21.46,21.46s-21.46-9.61-21.46-21.46
			c0-3.85,1.05-7.63,2.99-10.92c0.37-0.6,0.15-1.38-0.45-1.72c-0.6-0.37-1.38-0.15-1.72,0.45c-2.21,3.7-3.37,7.93-3.37,12.23
			c0,13.24,10.77,23.97,23.97,23.97s23.97-10.77,23.97-23.97C150.54,114.57,139.85,103.72,126.65,103.72z"/>
		<path class="st11" d="M126.65,146.01c10.1,0,18.28-8.23,18.28-18.28s-8.23-18.28-18.28-18.28c-10.1,0-18.28,8.23-18.28,18.28
			S116.55,146.01,126.65,146.01z M126.65,111.91c8.71,0,15.78,7.07,15.78,15.78c0,8.71-7.07,15.78-15.78,15.78
			c-8.71,0-15.78-7.07-15.78-15.78C110.87,118.98,117.93,111.91,126.65,111.91z"/>
		<path class="st11" d="M117.78,133.38h17.69c0.71,0,1.27-0.56,1.27-1.27v-8.82c0-0.45-0.26-0.9-0.67-1.12
			c-0.41-0.22-0.9-0.19-1.31,0.07l-3.7,2.51l-3.7-2.51c-0.41-0.3-0.97-0.3-1.42,0l-3.7,2.51l-3.7-2.51c-0.37-0.26-0.9-0.3-1.31-0.07
			c-0.41,0.22-0.67,0.64-0.67,1.12v8.82C116.51,132.82,117.11,133.38,117.78,133.38z M119.06,125.64l2.47,1.65
			c0.41,0.3,0.97,0.3,1.42,0l3.7-2.51l3.7,2.51c0.41,0.3,0.97,0.3,1.42,0l2.47-1.65v5.2h-15.14v-5.2H119.06z"/>
		<path class="st11" d="M110.57,112.89c0.34,0,0.67-0.15,0.93-0.41c0.49-0.52,0.45-1.31-0.07-1.79c-0.52-0.49-1.31-0.45-1.79,0.07
			c-0.49,0.52-0.45,1.31,0.07,1.79C109.97,112.77,110.27,112.89,110.57,112.89z"/>
	</g>
</g>
</svg>
