<?xml version="1.0" encoding="utf-8"?>
<!-- Generator: Adobe Illustrator 25.2.1, SVG Export Plug-In . SVG Version: 6.00 Build 0)  -->
<svg version="1.1" id="Layer_1" xmlns="http://www.w3.org/2000/svg" xmlns:xlink="http://www.w3.org/1999/xlink" x="0px" y="0px"
	 viewBox="0 0 279.97 239.04" style="enable-background:new 0 0 279.97 239.04;" xml:space="preserve">
<style type="text/css">
	.st0{fill:#262626;}
	.st1{fill:#FFFFFF;}
	.st2{fill:#302E2E;}
	.st3{fill-rule:evenodd;clip-rule:evenodd;fill:#FFFFFF;}
	.st4{fill-rule:evenodd;clip-rule:evenodd;fill:#C4C4C4;}
	.st5{fill:#C4C4C4;}
	.st6{fill:#E2E2E2;}
	.st7{fill:#A3A3A3;}
	.st8{clip-path:url(#SVGID_2_);}
	.st9{fill:#F6C434;}
	.st10{fill-rule:evenodd;clip-rule:evenodd;fill:#F6C434;}
	.st11{fill:#242729;}
	.st12{fill:#A5A5A5;}
	.st13{fill:#F6C358;}
	.st14{fill:#EBF0F3;}
	.st15{fill:#FCD462;}
	.st16{fill:#E2E5E7;}
	.st17{fill:#B0B7BD;}
	.st18{fill:#CAD1D8;}
	.st19{fill:#F15642;}
	.st20{fill:#6344FF;}
	.st21{fill:#30C668;}
	.st22{fill:#F02F60;}
	.st23{fill-rule:evenodd;clip-rule:evenodd;fill:#F02F60;}
	.st24{fill:#0B6AF6;}
	.st25{fill:#888888;}
</style>
<g>
	<path class="st5" d="M154.74,196.93h-9.82v13.7h9.82V196.93z"/>
	<path class="st5" d="M144.92,229.23h-4.91v9.78h14.72v-14.69h-9.82V229.23z"/>
	<path class="st5" d="M122.14,229.23h-17.91v9.82h17.91V229.23z"/>
	<path class="st5" d="M50.54,229.23H32.63v9.82h17.91V229.23z"/>
	<path class="st5" d="M86.32,229.23H68.42v9.82h17.91V229.23z"/>
	<path class="st5" d="M9.82,224.32H0v14.69h14.72v-9.78H9.82V224.32z"/>
	<path class="st5" d="M9.82,116.9H0v17.91h9.82V116.9z"/>
	<path class="st5" d="M9.82,152.69H0v17.91h9.82V152.69z"/>
	<path class="st5" d="M9.82,188.5H0v17.91h9.82V188.5z"/>
	<path class="st5" d="M0,98.99h9.82v-4.91h4.91v-9.82H0V98.99z"/>
	<path class="st5" d="M47.89,84.27H31.31v9.82h16.58V84.27z"/>
	<path class="st5" d="M260.5,172.25l16.18-15.55c2.75-2.62,3.88-6.57,2.98-10.25v-0.03c-0.9-3.65-3.68-6.6-7.33-7.73l-53.86-16.12
		V43.25c0-1.29-0.53-2.55-1.46-3.45L178.75,1.46C177.86,0.53,176.6,0,175.3,0H74.25c-2.72,0-4.91,2.19-4.91,4.91v79.36h-4.91v9.82
		h4.91v84.27h75.58v4.91h9.82v-4.91h28.55L194.9,214c1.16,3.48,3.98,6.1,7.56,7.03c0.83,0.2,1.69,0.33,2.62,0.33
		c2.75,0,5.37-1.06,7.4-2.98l16.52-15.85l14.49,14.49c4.18,4.18,10.98,4.18,15.16,0l15.69-15.69c2.02-2.02,3.15-4.71,3.15-7.56
		c0-2.85-1.16-5.64-3.15-7.59L260.5,172.25z M179.51,16.08L202.4,39h-22.88V16.08z M79.16,168.54V9.82h90.57v34.09
		c0,2.72,2.19,4.91,4.91,4.91h34.09v62.94v7.93l-29.75-8.89c-2.75-0.83-5.64-0.5-8.16,0.86c-2.52,1.36-4.34,3.61-5.17,6.37
		c-0.63,2.09-0.6,4.31,0.1,6.37l14.39,44.17H79.16V168.54z M251.05,208.13l-21.89-21.89L205.48,209l-9.98-30.64l-3.18-9.82
		l-15.02-46.16l31.41,9.39l9.82,2.95l49.05,14.66l-23.61,22.68l21.56,21.59L251.05,208.13z"/>
	<path class="st5" d="M189.89,64.74c0,2.02-1.62,3.68-3.68,3.68H99.72c-2.02,0-3.68-1.66-3.68-3.68c0-2.02,1.66-3.65,3.68-3.68
		h86.49C188.27,61.05,189.89,62.71,189.89,64.74z"/>
	<path class="st5" d="M189.89,82.58c0,2.02-1.62,3.68-3.68,3.68H99.72c-2.02,0-3.68-1.62-3.68-3.68c0-2.02,1.63-3.68,3.68-3.68
		c0,0,0,0,0.03,0h86.49C188.27,78.86,189.89,80.52,189.89,82.58C189.89,82.54,189.89,82.54,189.89,82.58z"/>
	<path class="st5" d="M189.89,100.39c0,2.02-1.62,3.68-3.68,3.68H99.72c-2.02,0-3.68-1.66-3.68-3.68c0-2.02,1.66-3.65,3.68-3.68
		h86.49C188.27,96.71,189.89,98.36,189.89,100.39z"/>
</g>
</svg>
