<?xml version="1.0" encoding="utf-8"?>
<!-- Generator: Adobe Illustrator 25.2.1, SVG Export Plug-In . SVG Version: 6.00 Build 0)  -->
<svg version="1.1" id="Layer_1" xmlns="http://www.w3.org/2000/svg" xmlns:xlink="http://www.w3.org/1999/xlink" x="0px" y="0px"
	 viewBox="0 0 64 64" style="enable-background:new 0 0 64 64;" xml:space="preserve">
<style type="text/css">
	.st0{fill:#262626;}
	.st1{fill:#FFFFFF;}
	.st2{fill:#302E2E;}
	.st3{fill-rule:evenodd;clip-rule:evenodd;fill:#FFFFFF;}
	.st4{fill-rule:evenodd;clip-rule:evenodd;fill:#C4C4C4;}
	.st5{fill:#C4C4C4;}
	.st6{fill:#E2E2E2;}
	.st7{fill:#A3A3A3;}
	.st8{clip-path:url(#SVGID_2_);}
	.st9{fill:#F6C434;}
	.st10{fill-rule:evenodd;clip-rule:evenodd;fill:#F6C434;}
	.st11{fill:#242729;}
	.st12{fill:#A5A5A5;}
	.st13{fill:#F6C358;}
	.st14{fill:#EBF0F3;}
	.st15{fill:#FCD462;}
	.st16{fill:#E2E5E7;}
	.st17{fill:#B0B7BD;}
	.st18{fill:#CAD1D8;}
	.st19{fill:#F15642;}
	.st20{fill:#6344FF;}
	.st21{fill:#30C668;}
	.st22{fill:#F02F60;}
	.st23{fill-rule:evenodd;clip-rule:evenodd;fill:#F02F60;}
	.st24{fill:#0B6AF6;}
	.st25{fill:#888888;}
</style>
<g>
	<path class="st1" d="M49.03,59.87H9.8V4.13h37.16V32c0,1.14,0.93,2.06,2.07,2.06c1.14,0,2.06-0.92,2.06-2.06V2.07
		c0-1.14-0.92-2.07-2.07-2.07H7.74C6.6,0,5.68,0.92,5.68,2.07v59.87C5.68,63.08,6.6,64,7.74,64h41.29c1.14,0,2.06-0.93,2.06-2.07
		C51.09,60.79,50.17,59.87,49.03,59.87z"/>
	<path class="st1" d="M56.31,41.83c-1.14-0.03-2.09,0.86-2.12,2c-0.04,1.67-1.32,3.05-2.28,3.67c0-0.03,0-0.05-0.01-0.07
		c-0.07-1.36-0.17-3.23-1.6-4.33c-2.57-1.98-5.57,0.56-8.47,3.01c-0.93,0.83-1.92,1.59-2.94,2.3c0.06-1.02,0.19-2.05,0.35-3.06
		c0.48-3.26,0.98-6.64-0.91-8.74c-3.07-3.4-9.51-0.96-21.52,8.15c-0.91,0.69-1.09,1.98-0.4,2.89c0.69,0.91,1.98,1.09,2.89,0.4
		c13.5-10.25,15.94-8.7,15.96-8.67c0.59,0.65,0.13,3.71-0.11,5.36c-0.47,3.16-0.91,6.13,1.19,7.58c0.53,0.38,1.17,0.58,1.82,0.58
		c2.02,0,4.2-1.84,6.33-3.64c1.02-0.9,2.09-1.73,3.23-2.48c0.03,0.29,0.04,0.61,0.06,0.86c0.07,1.32,0.16,3.14,1.74,3.97
		c1.2,0.63,2.75,0.47,4.35-0.47c2.14-1.25,4.35-3.96,4.45-7.19C58.35,42.82,57.46,41.86,56.31,41.83
		C56.31,41.83,56.32,41.83,56.31,41.83z"/>
</g>
</svg>
