<?xml version="1.0" encoding="utf-8"?>
<!-- Generator: Adobe Illustrator 25.2.1, SVG Export Plug-In . SVG Version: 6.00 Build 0)  -->
<svg version="1.1" id="Layer_1" xmlns="http://www.w3.org/2000/svg" xmlns:xlink="http://www.w3.org/1999/xlink" x="0px" y="0px"
	 viewBox="0 0 72 72" style="enable-background:new 0 0 72 72;" xml:space="preserve">
<style type="text/css">
	.st0{fill:#262626;}
	.st1{fill:#FFFFFF;}
	.st2{fill:#302E2E;}
	.st3{fill-rule:evenodd;clip-rule:evenodd;fill:#FFFFFF;}
	.st4{fill-rule:evenodd;clip-rule:evenodd;fill:#C4C4C4;}
	.st5{fill:#C4C4C4;}
	.st6{fill:#E2E2E2;}
	.st7{fill:#A3A3A3;}
	.st8{clip-path:url(#SVGID_2_);}
	.st9{fill:#F6C434;}
	.st10{fill-rule:evenodd;clip-rule:evenodd;fill:#F6C434;}
	.st11{fill:#242729;}
	.st12{fill:#A5A5A5;}
	.st13{fill:#F6C358;}
	.st14{fill:#EBF0F3;}
	.st15{fill:#FCD462;}
	.st16{fill:#E2E5E7;}
	.st17{fill:#B0B7BD;}
	.st18{fill:#CAD1D8;}
	.st19{fill:#F15642;}
	.st20{fill:#6344FF;}
	.st21{fill:#30C668;}
	.st22{fill:#F02F60;}
	.st23{fill-rule:evenodd;clip-rule:evenodd;fill:#F02F60;}
	.st24{fill:#0B6AF6;}
	.st25{fill:#888888;}
</style>
<g>
	<path class="st1" d="M0.95,26.86l34.46,16.48c0.41,0.19,0.88,0.19,1.29,0l34.46-16.48c0.75-0.36,1.06-1.26,0.7-2
		c-0.14-0.3-0.39-0.55-0.7-0.7L36.7,7.69c-0.41-0.19-0.88-0.19-1.29,0L0.95,24.17c-0.75,0.36-1.06,1.26-0.7,2
		C0.41,26.47,0.65,26.71,0.95,26.86z M36.05,10.7l30.98,14.81L36.05,40.33L5.07,25.51L36.05,10.7z M71.86,35.36
		c0.35,0.75,0.04,1.63-0.7,1.99L36.7,53.83c-0.41,0.19-0.88,0.19-1.29,0L0.95,37.35c-0.77-0.3-1.15-1.17-0.85-1.94
		c0.3-0.77,1.17-1.15,1.94-0.85c0.06,0.03,0.13,0.06,0.19,0.09l33.81,16.16l33.82-16.16C70.61,34.3,71.5,34.62,71.86,35.36z
		 M71.86,45.84c0.35,0.75,0.04,1.63-0.7,1.99L36.7,64.31c-0.41,0.19-0.88,0.19-1.29,0L0.95,47.84c-0.77-0.3-1.15-1.17-0.85-1.94
		c0.3-0.77,1.17-1.15,1.94-0.85c0.06,0.03,0.13,0.06,0.19,0.09l33.81,16.16l33.81-16.16C70.61,44.78,71.5,45.1,71.86,45.84z"/>
</g>
</svg>
