<?xml version="1.0" encoding="utf-8"?>
<!-- Generator: Adobe Illustrator 25.2.1, SVG Export Plug-In . SVG Version: 6.00 Build 0)  -->
<svg version="1.1" id="Layer_1" xmlns="http://www.w3.org/2000/svg" xmlns:xlink="http://www.w3.org/1999/xlink" x="0px" y="0px"
	 viewBox="0 0 72 72" style="enable-background:new 0 0 72 72;" xml:space="preserve">
<style type="text/css">
	.st0{fill:#262626;}
	.st1{fill:#FFFFFF;}
	.st2{fill:#302E2E;}
	.st3{fill-rule:evenodd;clip-rule:evenodd;fill:#FFFFFF;}
	.st4{fill-rule:evenodd;clip-rule:evenodd;fill:#C4C4C4;}
	.st5{fill:#C4C4C4;}
	.st6{fill:#E2E2E2;}
	.st7{fill:#A3A3A3;}
	.st8{clip-path:url(#SVGID_2_);}
	.st9{fill:#F6C434;}
	.st10{fill-rule:evenodd;clip-rule:evenodd;fill:#F6C434;}
	.st11{fill:#242729;}
	.st12{fill:#A5A5A5;}
	.st13{fill:#F6C358;}
	.st14{fill:#EBF0F3;}
	.st15{fill:#FCD462;}
	.st16{fill:#E2E5E7;}
	.st17{fill:#B0B7BD;}
	.st18{fill:#CAD1D8;}
	.st19{fill:#F15642;}
	.st20{fill:#6344FF;}
	.st21{fill:#30C668;}
	.st22{fill:#F02F60;}
	.st23{fill-rule:evenodd;clip-rule:evenodd;fill:#F02F60;}
	.st24{fill:#0B6AF6;}
	.st25{fill:#888888;}
</style>
<g>
	<path class="st1" d="M66.88,12.29c0-0.04,0-0.08,0-0.12c0-0.87-0.39-1.92-1.05-2.53c-0.73-0.67-1.54-0.97-2.53-1.05
		c-0.9-0.07-1.81-0.17-2.71-0.29C55.23,7.55,50,6.12,45.01,4.07c-2.22-0.96-4.36-2.05-6.47-3.22c-0.24-0.14-0.48-0.27-0.73-0.4
		c-1.21-0.62-2.48-0.6-3.67,0.03c-0.13,0.07-0.24,0.14-0.37,0.2c-0.79,0.43-1.56,0.86-2.35,1.28c-1.45,0.77-2.94,1.46-4.45,2.11
		c-4.98,2.05-10.19,3.48-15.53,4.23c-0.9,0.11-1.81,0.21-2.71,0.29C7.81,8.67,6.85,8.93,6.19,9.64c-0.64,0.7-1.05,1.56-1.05,2.53
		c0,3.02,0,6.04,0,9.06c0,3.23-0.11,6.47,0.04,9.68c0.33,7.15,2.37,14.18,6.01,20.35c3.54,6,8.53,11.08,14.41,14.8
		c2.78,1.76,5.56,3.52,8.33,5.26c0.09,0.06,0.18,0.11,0.27,0.17c1.04,0.66,2.57,0.66,3.61,0c2.53-1.59,5.03-3.19,7.56-4.77
		c0.36-0.22,0.72-0.46,1.08-0.68c0.04-0.02,0.08-0.07,0.12-0.09c4.78-3.06,8.86-6.96,12.2-11.55c3.11-4.29,5.41-9.28,6.72-14.42
		c0.99-3.86,1.39-7.83,1.39-11.81c0-2.9,0-5.81,0-8.7C66.88,17.09,66.91,14.7,66.88,12.29z M59.71,28.54c0,1.78-0.08,3.55-0.29,5.32
		c-0.46,3.22-1.33,6.37-2.55,9.38c-1.27,2.91-2.88,5.66-4.78,8.2c-1.96,2.46-4.19,4.68-6.66,6.63c-0.84,0.63-1.71,1.24-2.61,1.81
		c-2.28,1.43-4.55,2.88-6.83,4.31c-2.21-1.39-4.41-2.79-6.62-4.17c-0.97-0.61-1.91-1.27-2.84-1.96c-2.47-1.95-4.7-4.17-6.66-6.63
		c-1.9-2.53-3.5-5.26-4.77-8.16c-1.2-2.97-2.04-6.08-2.52-9.26c-0.33-2.89-0.31-5.78-0.31-8.67c0-3.33,0-6.66,0-10
		c7.69-1.03,15.15-3.33,22.09-6.88c0.55-0.28,1.09-0.57,1.63-0.86c2.41,1.27,4.85,2.45,7.38,3.5c3.91,1.6,7.98,2.8,12.14,3.59
		c1.38,0.26,2.77,0.48,4.16,0.66c0,1.3,0,2.59,0,3.89C59.71,22.34,59.71,25.43,59.71,28.54z"/>
	<path class="st1" d="M48.96,23.87c-0.94,0.04-1.85,0.37-2.53,1.05c-1.94,1.94-3.89,3.89-5.83,5.83c-2.92,2.92-5.85,5.85-8.77,8.77
		c-1.72-1.72-3.45-3.45-5.17-5.17c-0.37-0.37-0.73-0.73-1.1-1.1c-0.65-0.65-1.61-1.05-2.53-1.05c-0.87,0-1.92,0.39-2.53,1.05
		c-0.63,0.68-1.09,1.57-1.05,2.53c0.05,0.95,0.37,1.85,1.05,2.53c2.56,2.56,5.13,5.13,7.69,7.69c0.37,0.37,0.73,0.73,1.1,1.1
		c1.37,1.37,3.69,1.37,5.06,0c1.94-1.94,3.89-3.89,5.83-5.83c3.07-3.07,6.13-6.13,9.21-9.21c0.7-0.7,1.4-1.4,2.1-2.1
		c0.65-0.65,1.05-1.61,1.05-2.53c0-0.87-0.39-1.92-1.05-2.53C50.81,24.28,49.92,23.83,48.96,23.87z"/>
</g>
</svg>
