<?xml version="1.0" encoding="utf-8"?>
<!-- Generator: Adobe Illustrator 25.2.1, SVG Export Plug-In . SVG Version: 6.00 Build 0)  -->
<svg version="1.1" id="Layer_1" xmlns="http://www.w3.org/2000/svg" xmlns:xlink="http://www.w3.org/1999/xlink" x="0px" y="0px"
	 viewBox="0 0 64 64" style="enable-background:new 0 0 64 64;" xml:space="preserve">
<style type="text/css">
	.st0{fill:#262626;}
	.st1{fill:#FFFFFF;}
	.st2{fill:#302E2E;}
	.st3{fill-rule:evenodd;clip-rule:evenodd;fill:#FFFFFF;}
	.st4{fill-rule:evenodd;clip-rule:evenodd;fill:#C4C4C4;}
	.st5{fill:#C4C4C4;}
	.st6{fill:#E2E2E2;}
	.st7{fill:#A3A3A3;}
	.st8{clip-path:url(#SVGID_2_);}
	.st9{fill:#F6C434;}
	.st10{fill-rule:evenodd;clip-rule:evenodd;fill:#F6C434;}
	.st11{fill:#242729;}
	.st12{fill:#A5A5A5;}
	.st13{fill:#F6C358;}
	.st14{fill:#EBF0F3;}
	.st15{fill:#FCD462;}
	.st16{fill:#E2E5E7;}
	.st17{fill:#B0B7BD;}
	.st18{fill:#CAD1D8;}
	.st19{fill:#F15642;}
	.st20{fill:#6344FF;}
	.st21{fill:#30C668;}
	.st22{fill:#F02F60;}
	.st23{fill-rule:evenodd;clip-rule:evenodd;fill:#F02F60;}
	.st24{fill:#0B6AF6;}
	.st25{fill:#888888;}
</style>
<path class="st2" d="M32,0c4.54,0,8.24,3.58,8.45,8.06c7.91,3.34,13.23,11.14,13.23,19.97v12.19c3.54,0.27,6.35,3.24,6.35,6.85
	c0,3.8-3.09,6.88-6.89,6.88H10.85c-3.8,0-6.89-3.08-6.89-6.88c0-3.62,2.79-6.58,6.35-6.85V28.03c0-8.83,5.32-16.63,13.23-19.97
	C23.76,3.58,27.46,0,32,0z M26.99,12.42c-6.73,2.15-11.38,8.43-11.38,15.61v12.69c0,2.62-2.14,4.76-4.76,4.76
	c-0.88,0-1.59,0.71-1.59,1.59c0,0.88,0.71,1.59,1.6,1.59h42.29c0.88,0,1.6-0.72,1.6-1.59c0-0.87-0.72-1.59-1.59-1.59
	c-2.63,0-4.76-2.13-4.76-4.76V28.03c0-7.18-4.65-13.46-11.38-15.61l-1.84-0.59V8.45c0-1.75-1.42-3.16-3.17-3.16
	c-1.75,0-3.17,1.42-3.17,3.16v3.37L26.99,12.42z M21.95,53.95h5.29c0,2.63,2.13,4.76,4.76,4.76c2.63,0,4.76-2.13,4.76-4.76h5.29
	C42.05,59.5,37.55,64,32,64S21.95,59.5,21.95,53.95z"/>
</svg>
