<?xml version="1.0" encoding="utf-8"?>
<!-- Generator: Adobe Illustrator 25.2.1, SVG Export Plug-In . SVG Version: 6.00 Build 0)  -->
<svg version="1.1" id="Layer_1" xmlns="http://www.w3.org/2000/svg" xmlns:xlink="http://www.w3.org/1999/xlink" x="0px" y="0px"
	 viewBox="0 0 72 72" style="enable-background:new 0 0 72 72;" xml:space="preserve">
<style type="text/css">
	.st0{fill:#262626;}
	.st1{fill:#FFFFFF;}
	.st2{fill:#302E2E;}
	.st3{fill-rule:evenodd;clip-rule:evenodd;fill:#FFFFFF;}
	.st4{fill-rule:evenodd;clip-rule:evenodd;fill:#C4C4C4;}
	.st5{fill:#C4C4C4;}
	.st6{fill:#E2E2E2;}
	.st7{fill:#A3A3A3;}
	.st8{clip-path:url(#SVGID_2_);}
	.st9{fill:#F6C434;}
	.st10{fill-rule:evenodd;clip-rule:evenodd;fill:#F6C434;}
	.st11{fill:#242729;}
	.st12{fill:#A5A5A5;}
	.st13{fill:#F6C358;}
	.st14{fill:#EBF0F3;}
	.st15{fill:#FCD462;}
	.st16{fill:#E2E5E7;}
	.st17{fill:#B0B7BD;}
	.st18{fill:#CAD1D8;}
	.st19{fill:#F15642;}
	.st20{fill:#6344FF;}
	.st21{fill:#30C668;}
	.st22{fill:#F02F60;}
	.st23{fill-rule:evenodd;clip-rule:evenodd;fill:#F02F60;}
	.st24{fill:#0B6AF6;}
	.st25{fill:#888888;}
</style>
<g>
	<path class="st1" d="M28.8,32.42h-1.96V17.93c0-0.59-0.46-1.08-1.05-1.13c-0.19-0.01-0.38-0.01-0.56,0h-0.27
		c-6,0-15.12,7.54-15.4,16.94c-5.9,0.66-10.15,5.98-9.49,11.9c0.61,5.41,5.17,9.52,10.62,9.56H25.7c0.62,0,1.13-0.51,1.13-1.13V42.1
		h1.96c2.67,0.09,4.91-2,5-4.67c0.09-2.67-2-4.91-4.67-5C29.02,32.42,28.91,32.42,28.8,32.42z M28.8,39.84h-3.09
		c-0.62,0-1.13,0.51-1.13,1.13v11.97h-13.9c-4.7,0.01-8.52-3.79-8.53-8.48c-0.01-4.7,3.79-8.52,8.48-8.53
		c0.33,0.02,0.65-0.11,0.88-0.35c0.21-0.22,0.33-0.52,0.31-0.83c0-0.2,0-0.38,0-0.56c-0.01-7.99,7.67-14.76,12.76-15.11v14.5
		c0,0.62,0.51,1.13,1.13,1.13h3.09c1.42-0.07,2.63,1.03,2.7,2.46c0.07,1.42-1.03,2.63-2.46,2.7C28.96,39.85,28.88,39.85,28.8,39.84z
		"/>
	<path class="st1" d="M64.26,36.1c0.09-0.54,0.13-1.08,0.13-1.63c-0.05-5.97-4.93-10.77-10.91-10.72c-1.32,0-2.63,0.24-3.87,0.7
		c-2.83-4.27-7.4-7.07-12.5-7.63c-0.32-0.04-0.64,0.07-0.87,0.29c-0.24,0.22-0.38,0.52-0.38,0.84v6.06c-0.01,0.07-0.01,0.15,0,0.22
		v9.34c0,0.62,0.51,1.13,1.13,1.13h3.09c1.42-0.07,2.63,1.03,2.7,2.46c0.06,1.42-1.03,2.63-2.46,2.7c-0.08,0.01-0.16,0.01-0.24,0H37
		c-0.62,0-1.13,0.51-1.13,1.13v8.59c-0.01,0.08-0.01,0.15,0,0.23v4.29c0,0.62,0.51,1.13,1.13,1.13h25.18
		c5.33,0.09,9.72-4.15,9.81-9.47C72.08,41.06,68.82,37.01,64.26,36.1z M62.18,52.94H38.13v-8.86c0.01-0.08,0.01-0.15,0-0.23V42.1
		h1.96c2.67,0.09,4.91-2,5-4.67c0.09-2.67-2-4.91-4.67-5c-0.11-0.01-0.22-0.01-0.33,0h-1.96V31.3c0.01-0.07,0.01-0.15,0-0.22V19.25
		c4.23,0.86,7.9,3.48,10.1,7.19c0.3,0.49,0.93,0.68,1.45,0.43c1.19-0.58,2.49-0.87,3.81-0.87c4.72-0.04,8.59,3.74,8.64,8.47
		c0,0.77-0.11,1.52-0.33,2.25c-0.17,0.6,0.18,1.22,0.78,1.39c0.07,0.02,0.14,0.04,0.22,0.04c4.08,0.17,7.25,3.62,7.08,7.7
		C69.71,49.94,66.27,53.11,62.18,52.94z"/>
</g>
</svg>
