<?xml version="1.0" encoding="utf-8"?>
<!-- Generator: Adobe Illustrator 25.2.1, SVG Export Plug-In . SVG Version: 6.00 Build 0)  -->
<svg version="1.1" id="Layer_1" xmlns="http://www.w3.org/2000/svg" xmlns:xlink="http://www.w3.org/1999/xlink" x="0px" y="0px"
	 viewBox="0 0 264.02 360" style="enable-background:new 0 0 264.02 360;" xml:space="preserve">
<style type="text/css">
	.st0{fill:#262626;}
	.st1{fill:#FFFFFF;}
	.st2{fill:#302E2E;}
	.st3{fill-rule:evenodd;clip-rule:evenodd;fill:#FFFFFF;}
	.st4{fill-rule:evenodd;clip-rule:evenodd;fill:#C4C4C4;}
	.st5{fill:#C4C4C4;}
	.st6{fill:#E2E2E2;}
	.st7{fill:#A3A3A3;}
	.st8{clip-path:url(#SVGID_2_);}
	.st9{fill:#F6C434;}
	.st10{fill-rule:evenodd;clip-rule:evenodd;fill:#F6C434;}
	.st11{fill:#242729;}
	.st12{fill:#A5A5A5;}
	.st13{fill:#F6C358;}
	.st14{fill:#EBF0F3;}
	.st15{fill:#FCD462;}
	.st16{fill:#E2E5E7;}
	.st17{fill:#B0B7BD;}
	.st18{fill:#CAD1D8;}
	.st19{fill:#F15642;}
	.st20{fill:#6344FF;}
	.st21{fill:#30C668;}
	.st22{fill:#F02F60;}
	.st23{fill-rule:evenodd;clip-rule:evenodd;fill:#F02F60;}
	.st24{fill:#0B6AF6;}
	.st25{fill:#888888;}
</style>
<g>
	<path class="st22" d="M263.21,80v-1.08c-0.58-1.23-1.34-2.38-2.27-3.38L188.93,3.57c-1-0.92-2.11-1.69-3.38-2.27
		c-0.35-0.04-0.73-0.04-1.08,0c-1.19-0.69-2.5-1.11-3.84-1.31H11.98C5.38-0.04,0,5.34,0,11.95v336.07C0,354.66,5.38,360,11.98,360
		h240.05c6.64,0,11.98-5.38,11.98-11.98V84c0,0,0,0,0-0.73C263.9,82.16,263.6,81.08,263.21,80z M223.11,71.98h-31.07V40.91
		L223.11,71.98z M240.05,336.03H24.01V23.97h144.03v59.99c0,6.64,5.38,11.98,11.98,11.98h60.03V336.03z"/>
	<path class="st22" d="M48.01,180.02c0,46.4,37.6,84.04,84.04,84.04s84.04-37.6,84.04-84.04s-37.64-84.04-84.04-84.04
		S48.01,133.58,48.01,180.02z M192.04,180.02c0,33.15-26.89,59.99-59.99,59.99s-59.99-26.89-59.99-59.99s26.89-59.99,59.99-59.99
		S192.04,146.87,192.04,180.02z"/>
	<path class="st22" d="M165.04,197.07l-17.05-17.05l17.05-17.05c4.42-4.42,4.42-11.52,0-15.94c-4.42-4.42-11.52-4.42-15.94,0
		l-17.05,17.05l-17.05-17.05c-4.42-4.42-11.52-4.42-15.94,0c-4.42,4.42-4.42,11.52,0,15.94l17.05,17.05l-17.05,17.05
		c-4.42,4.42-4.42,11.52,0,15.94c4.42,4.42,11.52,4.42,15.94,0l17.05-17.05l17.05,17.05c4.42,4.42,11.52,4.42,15.94,0
		C169.46,208.6,169.42,201.45,165.04,197.07z"/>
</g>
</svg>
