<?xml version="1.0" encoding="utf-8"?>
<!-- Generator: Adobe Illustrator 25.2.1, SVG Export Plug-In . SVG Version: 6.00 Build 0)  -->
<svg version="1.1" id="Layer_1" xmlns="http://www.w3.org/2000/svg" xmlns:xlink="http://www.w3.org/1999/xlink" x="0px" y="0px"
	 viewBox="0 0 128 128" style="enable-background:new 0 0 128 128;" xml:space="preserve">
<style type="text/css">
	.st0{fill:#262626;}
	.st1{fill:#FFFFFF;}
	.st2{fill:#302E2E;}
	.st3{fill-rule:evenodd;clip-rule:evenodd;fill:#FFFFFF;}
	.st4{fill-rule:evenodd;clip-rule:evenodd;fill:#C4C4C4;}
	.st5{fill:#C4C4C4;}
	.st6{fill:#E2E2E2;}
	.st7{fill:#A3A3A3;}
	.st8{clip-path:url(#SVGID_2_);}
	.st9{fill:#F6C434;}
	.st10{fill-rule:evenodd;clip-rule:evenodd;fill:#F6C434;}
	.st11{fill:#242729;}
	.st12{fill:#A5A5A5;}
	.st13{fill:#F6C358;}
	.st14{fill:#EBF0F3;}
	.st15{fill:#FCD462;}
	.st16{fill:#E2E5E7;}
	.st17{fill:#B0B7BD;}
	.st18{fill:#CAD1D8;}
	.st19{fill:#F15642;}
	.st20{fill:#6344FF;}
	.st21{fill:#30C668;}
	.st22{fill:#F02F60;}
	.st23{fill-rule:evenodd;clip-rule:evenodd;fill:#F02F60;}
	.st24{fill:#0B6AF6;}
	.st25{fill:#888888;}
</style>
<g>
	<path class="st16" d="M32,0c-4.4,0-8,3.6-8,8v112c0,4.4,3.6,8,8,8h80c4.4,0,8-3.6,8-8V32L88,0H32z"/>
	<path class="st17" d="M96,32h24L88,0v24C88,28.4,91.6,32,96,32z"/>
	<path class="st18" d="M120,56L96,32h24V56z"/>
	<path class="st19" d="M104,104c0,2.2-1.8,4-4,4H12c-2.2,0-4-1.8-4-4V64c0-2.2,1.8-4,4-4h88c2.2,0,4,1.8,4,4V104z"/>
	<path class="st1" d="M25.43,75.79c0-1.06,0.83-2.21,2.17-2.21h7.39c4.16,0,7.91,2.79,7.91,8.12c0,5.06-3.74,7.87-7.91,7.87h-5.34
		v4.23c0,1.41-0.9,2.2-2.05,2.2c-1.05,0-2.17-0.79-2.17-2.2V75.79z M29.65,77.61v7.97h5.34c2.15,0,3.84-1.89,3.84-3.88
		c0-2.23-1.69-4.09-3.84-4.09H29.65z"/>
	<path class="st1" d="M49.16,96c-1.06,0-2.21-0.57-2.21-1.98V75.85c0-1.15,1.15-1.98,2.21-1.98h7.32C71.1,73.87,70.78,96,56.77,96
		H49.16z M51.18,77.77V92.1h5.31c8.63,0,9.02-14.33,0-14.33H51.18z"/>
	<path class="st1" d="M75.96,78.03v5.08h8.16c1.15,0,2.3,1.15,2.3,2.27c0,1.06-1.15,1.92-2.3,1.92h-8.16v6.72
		c0,1.12-0.79,1.98-1.91,1.98c-1.41,0-2.27-0.86-2.27-1.98V75.85c0-1.15,0.87-1.99,2.27-1.99h11.23c1.41,0,2.24,0.84,2.24,1.99
		c0,1.02-0.83,2.17-2.24,2.17L75.96,78.03L75.96,78.03z"/>
	<path class="st18" d="M100,108H24v4h76c2.2,0,4-1.8,4-4v-4C104,106.2,102.2,108,100,108z"/>
</g>
</svg>
